<?xml version="1.0" encoding="utf-8"?>
<!-- Generator: Adobe Illustrator 22.0.1, SVG Export Plug-In . SVG Version: 6.00 Build 0)  -->
<svg version="1.1" id="Слой_1" xmlns="http://www.w3.org/2000/svg" xmlns:xlink="http://www.w3.org/1999/xlink" x="0px" y="0px"
	 viewBox="0 0 595.3 841.9" style="enable-background:new 0 0 595.3 841.9;" xml:space="preserve">
<style type="text/css">
	.st0{fill:#F7AA47;}
	.st1{fill:#F7AB4A;}
	.st2{fill:#F7AD4E;}
	.st3{fill:#F8AF52;}
	.st4{fill:#F8B157;}
	.st5{fill:#F8B35B;}
	.st6{fill:#F8B45E;}
	.st7{fill:#F9B662;}
	.st8{fill:#F9B967;}
	.st9{fill:#F9BA6B;}
	.st10{fill:#F9BC6F;}
	.st11{fill:#FABE72;}
	.st12{fill:#FAC077;}
	.st13{fill:#FAC27B;}
	.st14{fill:#FAC37F;}
	.st15{fill:#FAC582;}
	.st16{fill:#FBC887;}
	.st17{fill:#FBC98B;}
	.st18{fill:#FBCB8E;}
	.st19{fill:#FBCC92;}
	.st20{fill:#FBCE96;}
	.st21{fill:#FBD09A;}
	.st22{fill:#FCD19D;}
	.st23{fill:#FCD3A1;}
	.st24{fill:#FCD5A6;}
	.st25{fill:#FCD7A9;}
	.st26{fill:#FCD8AD;}
	.st27{fill:#FDDAB0;}
	.st28{fill:#FDDCB5;}
	.st29{fill:#FDDDB8;}
	.st30{fill:#FDDFBC;}
	.st31{fill:#FDE1BF;}
	.st32{fill:#FDE3C4;}
	.st33{fill:#FDE5C7;}
	.st34{fill:#FDE6CB;}
	.st35{fill:#FDE8CE;}
	.st36{fill:#FDEAD2;}
	.st37{fill:#FDEBD6;}
	.st38{fill:#FEEDD9;}
	.st39{fill:#FEEFDD;}
	.st40{fill:#FEF1E1;}
	.st41{fill:#FEF2E5;}
	.st42{fill:#FEF4E8;}
	.st43{fill:#FEF6EC;}
	.st44{fill:#FEF7F0;}
	.st45{fill:#FEF9F3;}
	.st46{fill:#FEFAF7;}
	.st47{fill:#FEFCFA;}
	.st48{fill:#FEFEFE;}
	.st49{fill:#271F1B;}
	.st50{fill:#FFFFFF;}
</style>
<polygon class="st0" points="48.5,420.9 144.5,326.2 240.5,420.9 144.5,515.7 "/>
<g>
	<polygon class="st1" points="49.9,420.9 144.5,327.6 239,420.9 144.5,514.3 	"/>
	<polygon class="st2" points="51.4,420.9 144.5,329 237.6,420.9 144.5,512.9 	"/>
	<polygon class="st3" points="52.8,420.9 144.5,330.4 236.2,420.9 144.5,511.4 	"/>
	<polygon class="st4" points="54.2,420.9 144.5,331.9 234.7,420.9 144.5,510 	"/>
	<polygon class="st5" points="55.7,420.9 144.5,333.3 233.3,420.9 144.5,508.6 	"/>
	<polygon class="st6" points="57.1,420.9 144.5,334.7 231.9,420.9 144.5,507.2 	"/>
	<polygon class="st7" points="58.5,420.9 144.5,336.1 230.4,420.9 144.5,505.8 	"/>
	<polygon class="st8" points="60,420.9 144.5,337.5 229,420.9 144.5,504.3 	"/>
	<polygon class="st9" points="61.4,420.9 144.5,339 227.5,420.9 144.5,502.9 	"/>
	<polygon class="st10" points="62.9,420.9 144.5,340.4 226.1,420.9 144.5,501.5 	"/>
	<polygon class="st11" points="64.3,420.9 144.5,341.8 224.7,420.9 144.5,500.1 	"/>
	<polygon class="st12" points="65.8,420.9 144.5,343.2 223.2,420.9 144.5,498.7 	"/>
	<polygon class="st13" points="67.2,420.9 144.5,344.7 221.8,420.9 144.5,497.2 	"/>
	<polygon class="st14" points="68.6,420.9 144.5,346.1 220.3,420.9 144.5,495.8 	"/>
	<polygon class="st15" points="70.1,420.9 144.5,347.5 218.9,420.9 144.5,494.4 	"/>
	<polygon class="st16" points="71.5,420.9 144.5,348.9 217.4,420.9 144.5,493 	"/>
	<polygon class="st17" points="73,420.9 144.5,350.4 216,420.9 144.5,491.5 	"/>
	<polygon class="st18" points="74.4,420.9 144.5,351.8 214.6,420.9 144.5,490.1 	"/>
	<polygon class="st19" points="75.8,420.9 144.5,353.2 213.1,420.9 144.5,488.7 	"/>
	<polygon class="st20" points="77.3,420.9 144.5,354.6 211.7,420.9 144.5,487.3 	"/>
	<polygon class="st21" points="78.7,420.9 144.5,356 210.2,420.9 144.5,485.9 	"/>
	<polygon class="st22" points="80.2,420.9 144.5,357.5 208.8,420.9 144.5,484.4 	"/>
	<polygon class="st23" points="81.6,420.9 144.5,358.9 207.4,420.9 144.5,483 	"/>
	<polygon class="st24" points="83,420.9 144.5,360.3 205.9,420.9 144.5,481.6 	"/>
	<polygon class="st25" points="84.5,420.9 144.5,361.7 204.5,420.9 144.5,480.2 	"/>
	<polygon class="st26" points="85.9,420.9 144.5,363.1 203,420.9 144.5,478.7 	"/>
	<polygon class="st27" points="87.4,420.9 144.5,364.6 201.6,420.9 144.5,477.3 	"/>
	<polygon class="st28" points="88.8,420.9 144.5,366 200.2,420.9 144.5,475.9 	"/>
	<polygon class="st29" points="90.2,420.9 144.5,367.4 198.7,420.9 144.5,474.5 	"/>
	<polygon class="st30" points="91.7,420.9 144.5,368.8 197.3,420.9 144.5,473.1 	"/>
	<polygon class="st31" points="93.1,420.9 144.5,370.2 195.9,420.9 144.5,471.6 	"/>
	<polygon class="st32" points="94.6,420.9 144.5,371.7 194.4,420.9 144.5,470.2 	"/>
	<polygon class="st33" points="96,420.9 144.5,373.1 193,420.9 144.5,468.8 	"/>
	<polygon class="st34" points="97.4,420.9 144.5,374.5 191.5,420.9 144.5,467.4 	"/>
	<polygon class="st35" points="98.9,420.9 144.5,375.9 190.1,420.9 144.5,466 	"/>
	<polygon class="st36" points="100.3,420.9 144.5,377.3 188.6,420.9 144.5,464.5 	"/>
	<polygon class="st37" points="101.8,420.9 144.5,378.8 187.2,420.9 144.5,463.1 	"/>
	<polygon class="st38" points="103.2,420.9 144.5,380.2 185.8,420.9 144.5,461.7 	"/>
	<polygon class="st39" points="104.6,420.9 144.5,381.6 184.3,420.9 144.5,460.3 	"/>
	<polygon class="st40" points="106.1,420.9 144.5,383 182.9,420.9 144.5,458.9 	"/>
	<polygon class="st41" points="107.5,420.9 144.5,384.5 181.4,420.9 144.5,457.4 	"/>
	<polygon class="st42" points="109,420.9 144.5,385.9 180,420.9 144.5,456 	"/>
	<polygon class="st43" points="110.4,420.9 144.5,387.3 178.6,420.9 144.5,454.6 	"/>
	<polygon class="st44" points="111.9,420.9 144.5,388.7 177.1,420.9 144.5,453.2 	"/>
	<polygon class="st45" points="113.3,420.9 144.5,390.2 175.7,420.9 144.5,451.7 	"/>
	<polygon class="st46" points="114.7,420.9 144.5,391.6 174.2,420.9 144.5,450.3 	"/>
	<polygon class="st47" points="116.2,420.9 144.5,393 172.8,420.9 144.5,448.9 	"/>
	<polygon class="st48" points="117.6,420.9 144.5,394.4 171.4,420.9 144.5,447.5 	"/>
</g>
<g>
	<path class="st48" d="M195,462.6v25.5h-5.9v-25.5l0,0H195z M189.4,457.7l5.9,0.6l0,0l0,0.1v0.1l0,0.1v0.1v0.1l0,0.1v0.1v0.1l0,0.1
		v0.1v0.1v0.1l0,0.1v0.1v0.1v0.1v0.1l0,0.1v0.1v0.1v0.1v0.1v0.2l0,0.1v0.1v0.1v0.2v0.1v0.2v0.2v0.1v0.2h-5.9v-0.2v-0.2v-0.2v-0.2
		v-0.2v-0.2v-0.1l0-0.2v-0.2v-0.2v-0.2v-0.1v-0.2v-0.2l0-0.1V460v-0.2v-0.1l0-0.2v-0.1v-0.1l0-0.1v-0.1v-0.1l0-0.1v-0.1v-0.1l0-0.1
		v-0.1l0-0.1v-0.1L189.4,457.7L189.4,457.7z M190.6,453.1l5.4,2.5l0,0l0,0.1l0,0.1l0,0.1l-0.1,0.1l0,0.1l0,0.1l0,0.1l0,0.1l0,0.1
		l0,0.1l-0.1,0.1v0.1l0,0.1l0,0.1l0,0.1l0,0.1l0,0.1l0,0.1v0.1l0,0.1l0,0.1v0.1l0,0.1l0,0.1v0.1l0,0.1v0.1l0,0.1v0.1l0,0.1v0.1v0.1
		l-5.9-0.6v-0.1l0-0.2l0-0.1v-0.1l0-0.1l0-0.1l0-0.1l0-0.1l0-0.1l0-0.1l0-0.1l0-0.2l0-0.1l0.1-0.1l0-0.1l0-0.1l0.1-0.1l0-0.1
		l0.1-0.1l0-0.1l0.1-0.1l0.1-0.1l0-0.1l0.1-0.1l0.1-0.1l0.1-0.1l0.1-0.1l0.1-0.1l0.1-0.1l0.1-0.1l0.1-0.1L190.6,453.1L190.6,453.1z
		 M190.6,453.1c0.7-1.5,2.4-2.1,3.9-1.4c1.5,0.7,2.1,2.4,1.4,3.9L190.6,453.1z M197.1,445.7l3.1,5l0,0l-0.2,0.1l-0.2,0.1l-0.2,0.1
		l-0.2,0.1l-0.2,0.1l-0.1,0.1l-0.2,0.1l-0.2,0.1l-0.1,0.1l-0.2,0.1l-0.1,0.1l-0.1,0.1l-0.1,0.1l-0.1,0.1l-0.1,0.1l-0.1,0.2l-0.1,0.1
		l-0.1,0.2l-0.1,0.1l-0.1,0.2l-0.1,0.2l-0.1,0.1l-0.1,0.2l-0.1,0.2l-0.1,0.2l-0.1,0.2l-0.1,0.2l-0.1,0.2l-0.1,0.2l-0.1,0.2l-0.1,0.2
		l-0.1,0.2l-5.4-2.5l0.1-0.3l0.1-0.3l0.1-0.3l0.1-0.3l0.2-0.3l0.1-0.3l0.2-0.3l0.2-0.3l0.2-0.3l0.2-0.3l0.2-0.3l0.2-0.3l0.2-0.2
		l0.2-0.3l0.2-0.2l0.2-0.3l0.2-0.2l0.2-0.2l0.2-0.2l0.2-0.2l0.2-0.2l0.2-0.2l0.2-0.2l0.2-0.2l0.3-0.2l0.2-0.2l0.3-0.2l0.3-0.2
		l0.3-0.2l0.3-0.2l0.3-0.2L197.1,445.7L197.1,445.7z M206.8,443v5.9l0,0h-0.2h-0.2l-0.2,0h-0.2l-0.2,0l-0.2,0h-0.2l-0.2,0l-0.2,0
		l-0.2,0.1l-0.2,0l-0.2,0l-0.2,0.1l-0.2,0.1l-0.2,0l-0.2,0.1l-0.2,0.1l-0.2,0.1l-0.2,0.1l-0.2,0.1l-0.2,0.1l-0.2,0.1l-0.2,0.1
		l-0.2,0.1l-0.2,0.1l-0.2,0.1l-0.2,0.1l-0.2,0.1l-0.2,0.1l-0.2,0.1l-0.2,0.1l-0.2,0.1l-3.1-5l0.3-0.1l0.3-0.2l0.3-0.2l0.3-0.1
		l0.3-0.1l0.3-0.1l0.3-0.1l0.3-0.1l0.3-0.1l0.3-0.1l0.3-0.1l0.3-0.1l0.3-0.1l0.3-0.1l0.3-0.1l0.3-0.1l0.3-0.1l0.3-0.1l0.3-0.1
		l0.3-0.1l0.3-0.1l0.3-0.1l0.3-0.1l0.3,0l0.3-0.1l0.3,0l0.3,0l0.3,0h0.3l0.3,0h0.3H206.8L206.8,443z M219.5,448.1l-4.2,4.1l0,0
		L215,452l-0.2-0.2l-0.2-0.2l-0.2-0.2l-0.2-0.2l-0.2-0.2l-0.2-0.1l-0.2-0.2l-0.2-0.2l-0.3-0.1l-0.2-0.1l-0.3-0.1l-0.2-0.1l-0.3-0.1
		l-0.3-0.1l-0.3-0.1l-0.3-0.1l-0.3-0.1l-0.3-0.1l-0.3-0.1l-0.3-0.1l-0.3-0.1l-0.3-0.1l-0.3-0.1L209,449l-0.3,0l-0.3-0.1l-0.3,0
		l-0.3,0h-0.3l-0.3,0h-0.3V443h0.5l0.5,0h0.5l0.5,0.1l0.5,0l0.5,0.1l0.4,0.1l0.5,0.1l0.4,0.1l0.4,0.1l0.4,0.1l0.4,0.1l0.4,0.1
		l0.4,0.1l0.4,0.1l0.4,0.2l0.4,0.2l0.4,0.2l0.4,0.2l0.4,0.2l0.4,0.2l0.4,0.2l0.4,0.2l0.4,0.3l0.4,0.3l0.3,0.3l0.3,0.3l0.3,0.3
		l0.3,0.3l0.3,0.3l0.3,0.3L219.5,448.1L219.5,448.1z M224.5,461h-5.9l0,0v-0.4l0-0.3v-0.3l0-0.3l0-0.3l-0.1-0.3l0-0.3l-0.1-0.3
		l-0.1-0.3l-0.1-0.3l-0.1-0.3l-0.1-0.3l-0.1-0.3l-0.1-0.3l-0.1-0.3l-0.1-0.3l-0.1-0.3l-0.1-0.3l-0.1-0.3l-0.1-0.3l-0.1-0.2l-0.1-0.3
		l-0.1-0.3l-0.2-0.2l-0.1-0.2l-0.2-0.3l-0.2-0.2l-0.2-0.2l-0.2-0.2l-0.2-0.2l-0.2-0.2l-0.2-0.2l4.2-4.1l0.3,0.3l0.3,0.3l0.3,0.3
		l0.3,0.3l0.3,0.3l0.3,0.4l0.3,0.3l0.3,0.4l0.2,0.4l0.2,0.4l0.2,0.4l0.2,0.4l0.2,0.4l0.2,0.4l0.2,0.4l0.2,0.4l0.1,0.4l0.1,0.4
		l0.1,0.4l0.1,0.4l0.1,0.4l0.1,0.4l0.1,0.5l0.1,0.4l0.1,0.5l0.1,0.5l0.1,0.5l0,0.5l0,0.5l0,0.5l0,0.5V461L224.5,461z M219.5,473.8
		l-4.3-4.1l0,0l0.2-0.2l0.2-0.2l0.2-0.2l0.2-0.2l0.2-0.2l0.2-0.2l0.2-0.3l0.1-0.2l0.2-0.3l0.1-0.2l0.1-0.3l0.1-0.3l0.1-0.3l0.1-0.3
		l0.1-0.3l0.1-0.3l0.1-0.3l0.1-0.3l0.1-0.3l0.1-0.3l0.1-0.3l0.1-0.3l0.1-0.3l0.1-0.3l0.1-0.3l0-0.3l0.1-0.3l0-0.3l0-0.3v-0.3l0-0.3
		V461h5.9v0.5l0,0.5l0,0.5l0,0.5l0,0.4l-0.1,0.5l-0.1,0.5l-0.1,0.4l-0.1,0.5l-0.1,0.4l-0.1,0.4l-0.1,0.4l-0.1,0.4l-0.1,0.4l-0.1,0.4
		l-0.1,0.4l-0.2,0.4l-0.2,0.4l-0.2,0.4l-0.2,0.4l-0.2,0.4l-0.2,0.4l-0.2,0.4l-0.2,0.4l-0.2,0.4l-0.3,0.4l-0.3,0.3l-0.3,0.4l-0.3,0.3
		l-0.3,0.3l-0.3,0.3L219.5,473.8L219.5,473.8z M206.5,479l0.5-5.8l-0.3,0h0.3h0.3l0.3,0l0.3,0l0.3,0l0.3,0l0.3-0.1l0.3,0l0.3-0.1
		l0.3-0.1l0.3-0.1l0.3-0.1l0.3-0.1l0.3-0.1l0.3-0.1l0.3-0.1l0.3-0.1l0.3-0.1l0.3-0.1l0.3-0.1l0.2-0.1l0.3-0.1l0.2-0.2l0.3-0.1
		l0.2-0.2l0.2-0.2l0.2-0.2l0.2-0.2l0.2-0.2l0.2-0.2l0.2-0.2l0.2-0.2l4.3,4.1l-0.3,0.3l-0.3,0.3l-0.3,0.3l-0.3,0.3l-0.3,0.3l-0.3,0.3
		l-0.4,0.3l-0.3,0.3l-0.4,0.3l-0.4,0.2l-0.4,0.2l-0.4,0.2l-0.4,0.2l-0.4,0.2l-0.4,0.2l-0.4,0.2l-0.4,0.2l-0.4,0.1l-0.4,0.1l-0.4,0.1
		l-0.4,0.1l-0.4,0.1l-0.5,0.1l-0.4,0.1l-0.5,0.1l-0.4,0.1l-0.5,0.1l-0.5,0.1l-0.5,0l-0.5,0h-0.5l-0.5,0L206.5,479z M206.8,479
		c-1.6,0-2.9-1.3-2.9-2.9s1.3-2.9,2.9-2.9V479z M205.1,473l1.9,0.2l-0.5,5.8l-1.9-0.2l-2.6-2.3L205.1,473z M204.6,478.8
		c-1.6-0.1-2.8-1.6-2.7-3.2c0.1-1.6,1.6-2.8,3.2-2.7L204.6,478.8z M205.6,465.4l2.1,9.9l-5.8,1.2l-2.2-9.9l3.9-3.4L205.6,465.4z
		 M199.8,466.6c-0.3-1.6,0.7-3.2,2.3-3.5c1.6-0.3,3.2,0.7,3.5,2.3L199.8,466.6z M205.6,463.8l-1.4,5.7l0,0l-0.1,0H204l-0.1,0l-0.1,0
		h-0.1l-0.1,0l-0.1,0h-0.1l-0.1,0l-0.1,0h-0.1l-0.1,0l-0.1,0l-0.1,0h-0.1l-0.1,0l-0.1,0l-0.1,0l-0.1,0h-0.1l-0.1,0l-0.1,0l-0.1,0
		l-0.1,0l-0.1,0l-0.1,0l-0.1,0l-0.1,0l-0.1,0l-0.1,0l-0.1,0l-0.1,0l1.9-5.6l0.1,0l0.1,0l0.1,0h0.1l0.1,0l0.1,0l0.1,0l0.1,0h0.1
		l0.1,0l0.1,0l0.1,0h0.1l0.1,0l0.1,0h0.1l0.1,0l0.1,0h0.1l0.1,0h0.1l0.1,0h0.1l0.1,0h0l0.1,0h0.1l0,0h0.1L205.6,463.8L205.6,463.8
		L205.6,463.8L205.6,463.8z M205.6,463.8c1.6,0.4,2.6,2,2.2,3.6c-0.4,1.6-2,2.5-3.6,2.2L205.6,463.8z M206.4,463.9v5.9l0,0h-0.1
		h-0.1h-0.1h-0.1l-0.1,0H206h-0.1h-0.1h-0.1h-0.1l-0.1,0h-0.1h-0.1h-0.1l-0.1,0h-0.1h-0.1l-0.1,0h-0.1H205l-0.1,0h-0.1l-0.1,0h-0.1
		l-0.1,0h-0.1l-0.1,0h-0.1l-0.1,0h-0.1l-0.1,0h-0.1l1.4-5.7l0.1,0h0h0h0l0,0h0h0h0h0l0,0h0.1l0,0h0h0.1l0,0h0l0,0h0h0h0l0,0h0h0h0h0
		l0,0h0H206.4L206.4,463.9L206.4,463.9L206.4,463.9L206.4,463.9L206.4,463.9z M208.5,463.2l4.3,4.1l0,0l-0.1,0.1l-0.2,0.2l-0.1,0.1
		l-0.2,0.1L212,468l-0.2,0.1l-0.2,0.1l-0.2,0.1l-0.2,0.1l-0.2,0.1l-0.2,0.1l-0.2,0.1l-0.2,0.1l-0.2,0.1l-0.2,0.1l-0.2,0.1l-0.2,0.1
		l-0.2,0.1l-0.2,0.1l-0.2,0.1l-0.2,0.1l-0.2,0.1l-0.2,0l-0.2,0.1l-0.2,0l-0.2,0l-0.2,0h-0.2l-0.2,0h-0.2l-0.2,0h-0.2v-5.9h0.1h0.1
		h0.1h0.1l0.1,0h0.1h0.1l0.1,0h0.1l0.1,0l0.1,0h0.1l0.1,0l0.1,0h0.1l0.1,0l0.1,0l0.1,0h0.1l0,0l0.1,0l0.1,0l0,0l0.1,0l0,0l0.1,0l0,0
		l0,0l0.1-0.1L208.5,463.2L208.5,463.2L208.5,463.2L208.5,463.2z M208.5,463.2c1.1-1.2,3-1.2,4.2-0.1c1.2,1.1,1.2,3,0.1,4.2
		L208.5,463.2z M209.2,461h5.9l0,0v0.2v0.2v0.2l0,0.2v0.2l0,0.2l0,0.2l0,0.2l0,0.2l-0.1,0.2l0,0.2l-0.1,0.2l-0.1,0.2l-0.1,0.2
		l-0.1,0.2l-0.1,0.2l-0.1,0.2l-0.1,0.2l-0.1,0.2l-0.1,0.2l-0.1,0.2l-0.1,0.2l-0.1,0.2l-0.1,0.2l-0.1,0.2l-0.1,0.2l-0.1,0.2l-0.1,0.2
		l-0.1,0.2l-0.1,0.2l-0.1,0.1l-0.1,0.2l-4.3-4.1l0,0l0.1-0.1l0,0l0-0.1l0,0l0-0.1l0.1-0.1l0,0l0-0.1l0-0.1l0-0.1l0-0.1l0-0.1v-0.1
		l0-0.1l0-0.1l0-0.1l0-0.1v-0.1l0-0.1l0-0.1V462l0-0.1v-0.1l0-0.1v-0.1l0-0.1v-0.1v-0.1v-0.1v-0.1V461L209.2,461z M208.5,458.8
		l4.3-4l0,0l0.1,0.2l0.1,0.1l0.1,0.2l0.1,0.2l0.1,0.2l0.1,0.2l0.1,0.2l0.1,0.2l0.1,0.2l0.1,0.2l0.1,0.2l0.1,0.2l0.1,0.2l0.1,0.2
		l0.1,0.2l0.1,0.2l0.1,0.2l0.1,0.2l0.1,0.2l0,0.2l0.1,0.2l0.1,0.2l0,0.2l0,0.2l0,0.2l0,0.2l0,0.2v0.2l0,0.2v0.2v0.2v0.2h-5.9v-0.1
		v-0.1v-0.1v-0.1v-0.1l0-0.1v-0.1l0-0.1V460l0-0.1v-0.1l0-0.1l0-0.1v-0.1l0-0.1l0-0.1v-0.1l0-0.1l0-0.1l0-0.1l0,0l0-0.1l0-0.1l0-0.1
		l0,0l0-0.1l0,0l0-0.1l0,0L208.5,458.8L208.5,458.8L208.5,458.8L208.5,458.8z M208.5,458.8c-1.1-1.2-1-3.1,0.2-4.2
		c1.2-1.1,3-1,4.2,0.1L208.5,458.8z M206.7,458.1v-5.9l0,0h0.2h0.2h0.2l0.2,0l0.2,0l0.2,0l0.2,0l0.2,0l0.2,0l0.2,0.1l0.2,0l0.2,0.1
		l0.2,0.1l0.2,0.1l0.2,0.1l0.2,0.1l0.2,0.1l0.2,0.1l0.2,0.1l0.2,0.1l0.2,0.1l0.2,0.1l0.2,0.1l0.2,0.1l0.2,0.1l0.2,0.1l0.2,0.1
		l0.2,0.1l0.1,0.1l0.2,0.1l0.1,0.2l0.2,0.1l-4.3,4l-0.1-0.1l0,0l0,0l0,0l-0.1,0l0,0l0,0l0,0l-0.1,0l0,0l-0.1,0h0l-0.1,0l0,0h-0.1
		l-0.1,0l-0.1,0l0,0h-0.1l-0.1,0h-0.1l-0.1,0h-0.1l-0.1,0h-0.1l-0.1,0h-0.1h-0.1l-0.1,0h-0.1H206.7L206.7,458.1L206.7,458.1z
		 M204.2,461.7h-5.9l0,0v-0.5l0-0.5l0-0.5l0.1-0.5l0.1-0.5l0.1-0.4l0.1-0.5l0.1-0.4l0.1-0.4l0.1-0.4l0.2-0.4l0.2-0.4l0.2-0.4
		l0.2-0.4l0.3-0.4l0.3-0.3l0.3-0.3l0.3-0.3l0.3-0.3l0.4-0.3l0.4-0.3l0.4-0.2l0.4-0.2l0.4-0.2l0.4-0.1l0.4-0.1l0.4-0.1l0.4-0.1
		l0.5-0.1l0.4-0.1l0.5,0h0.5v5.9h-0.2l-0.2,0h-0.2l-0.2,0l-0.2,0l-0.1,0.1l-0.1,0l-0.1,0l-0.1,0.1l-0.1,0l-0.1,0.1l-0.1,0l-0.1,0.1
		l-0.1,0l-0.1,0.1l-0.1,0.1l-0.1,0.1l-0.1,0.1l-0.1,0.1l-0.1,0.1l-0.1,0.1l-0.1,0.1l-0.1,0.2l-0.1,0.2l0,0.2l-0.1,0.2l0,0.2
		l-0.1,0.3l0,0.3v0.3l0,0.3V461.7L204.2,461.7z M198.3,488.1v-26.5h5.9v26.5l-2.9,2.9L198.3,488.1z M204.2,488.1
		c0,1.6-1.3,2.9-2.9,2.9c-1.6,0-2.9-1.3-2.9-2.9H204.2z M192.1,485.2h9.1v5.9h-9.1l-2.9-2.9L192.1,485.2z M192.1,491
		c-1.6,0-2.9-1.3-2.9-2.9c0-1.6,1.3-2.9,2.9-2.9V491z M229.8,448.4l4.2,4.1l0,0l-0.2,0.2l-0.2,0.3l-0.2,0.2l-0.2,0.3l-0.2,0.2
		l-0.2,0.3l-0.2,0.2l-0.2,0.3l-0.2,0.3l-0.1,0.3l-0.1,0.3l-0.1,0.2l-0.1,0.3l-0.1,0.3l-0.1,0.3l-0.1,0.3l-0.1,0.3l-0.1,0.3l-0.1,0.3
		l-0.1,0.3l-0.1,0.3l-0.1,0.3l-0.1,0.3l-0.1,0.3l0,0.3l-0.1,0.3l0,0.3l0,0.3l0,0.3l0,0.3v0.3v0.3h-5.9v-0.5v-0.4l0-0.5l0-0.4
		l0.1-0.5l0.1-0.4l0.1-0.4l0.1-0.4l0.1-0.4l0.1-0.4l0.1-0.4l0.1-0.4l0.1-0.4l0.1-0.4l0.2-0.4l0.1-0.4l0.2-0.4l0.2-0.4l0.2-0.4
		l0.2-0.4l0.2-0.4l0.2-0.4l0.2-0.4l0.2-0.3l0.3-0.4l0.3-0.4l0.3-0.3l0.3-0.3l0.3-0.4l0.3-0.3l0.3-0.3L229.8,448.4L229.8,448.4z
		 M242.3,443v5.9l0,0h-0.3l-0.3,0h-0.3l-0.3,0l-0.3,0l-0.3,0.1l-0.3,0l-0.3,0.1l-0.3,0.1l-0.3,0.1l-0.3,0.1l-0.3,0.1l-0.3,0.1
		l-0.3,0.1l-0.3,0.1l-0.3,0.1l-0.3,0.1l-0.2,0.1l-0.3,0.1l-0.3,0.1l-0.3,0.1l-0.2,0.1l-0.3,0.2l-0.2,0.2l-0.3,0.2l-0.2,0.2l-0.3,0.2
		l-0.2,0.2l-0.2,0.2l-0.3,0.2l-0.2,0.2l-0.2,0.2l-4.2-4.1l0.3-0.3l0.3-0.3l0.3-0.3l0.3-0.3l0.3-0.3l0.4-0.3l0.3-0.3l0.4-0.3l0.4-0.3
		l0.4-0.2l0.4-0.2l0.4-0.2l0.4-0.2l0.4-0.2l0.4-0.2l0.4-0.2l0.4-0.2l0.4-0.1l0.4-0.1l0.4-0.1l0.4-0.1l0.4-0.1l0.4-0.1l0.4-0.1
		l0.4-0.1l0.4-0.1l0.4-0.1l0.5,0l0.4,0l0.5,0l0.5,0H242.3L242.3,443z M255,448.3l-4.2,4.1l0,0l-0.2-0.2l-0.2-0.2l-0.2-0.2l-0.2-0.2
		l-0.2-0.2l-0.3-0.2l-0.2-0.2l-0.2-0.2l-0.3-0.2l-0.3-0.2l-0.2-0.1l-0.3-0.1l-0.3-0.1l-0.3-0.1l-0.3-0.1l-0.3-0.1l-0.3-0.1l-0.3-0.1
		l-0.3-0.1l-0.3-0.1l-0.3-0.1l-0.3-0.1l-0.3-0.1l-0.3-0.1l-0.3-0.1l-0.3,0l-0.3-0.1l-0.3,0l-0.3,0H243l-0.3,0h-0.3V443h0.5l0.5,0
		h0.5l0.5,0.1l0.4,0l0.5,0.1l0.4,0.1l0.4,0.1l0.4,0.1l0.4,0.1l0.4,0.1l0.4,0.1l0.4,0.1l0.4,0.1l0.4,0.1l0.4,0.2l0.4,0.2l0.4,0.2
		l0.4,0.2l0.4,0.2l0.4,0.2l0.4,0.2l0.4,0.2l0.4,0.3l0.3,0.3l0.4,0.3l0.3,0.3l0.3,0.3l0.3,0.3l0.3,0.3l0.3,0.3L255,448.3L255,448.3z
		 M260.2,461h-5.9l0,0v-0.3v-0.3l0-0.3l0-0.3l0-0.3l0-0.3l-0.1-0.3l0-0.3l-0.1-0.3l-0.1-0.3l-0.1-0.3l-0.1-0.3l-0.1-0.3l-0.1-0.3
		l-0.1-0.3l-0.1-0.3l-0.1-0.3l-0.1-0.3l-0.1-0.3l-0.1-0.3l-0.1-0.3l-0.1-0.3l-0.2-0.2l-0.1-0.3l-0.2-0.3l-0.2-0.2l-0.2-0.2l-0.2-0.3
		l-0.2-0.2l-0.2-0.2l-0.2-0.3l-0.2-0.2l4.2-4.1l0.3,0.3l0.3,0.3l0.3,0.3l0.3,0.3l0.3,0.3l0.3,0.3l0.3,0.4l0.2,0.4l0.3,0.4l0.2,0.4
		l0.2,0.4l0.2,0.4l0.2,0.4l0.2,0.4l0.2,0.4l0.2,0.4l0.2,0.4l0.1,0.4l0.1,0.4l0.1,0.4l0.1,0.4l0.1,0.4l0.1,0.4l0.1,0.4l0.1,0.4
		l0.1,0.4l0.1,0.5l0.1,0.5l0,0.4l0,0.5v0.5V461L260.2,461z M255,473.6l-4.2-4.1l0,0l0.2-0.3l0.2-0.2l0.2-0.2l0.2-0.3l0.2-0.2
		l0.2-0.3l0.2-0.3l0.2-0.2l0.2-0.3l0.1-0.3l0.2-0.3l0.1-0.3l0.1-0.3l0.1-0.3l0.1-0.3l0.1-0.3l0.1-0.3l0.1-0.3l0.1-0.3l0.1-0.3
		l0.1-0.3l0.1-0.3l0.1-0.3l0.1-0.3l0-0.3l0.1-0.3l0-0.3l0.1-0.3v-0.3l0-0.3v-0.3V461h5.9v0.5v0.4l0,0.5l0,0.5l-0.1,0.4l-0.1,0.4
		l-0.1,0.5l-0.1,0.4l-0.1,0.4l-0.1,0.4l-0.1,0.4l-0.1,0.4l-0.1,0.4l-0.1,0.4l-0.1,0.4l-0.2,0.4l-0.2,0.4l-0.2,0.4l-0.2,0.4l-0.2,0.4
		l-0.2,0.4l-0.2,0.4l-0.2,0.4l-0.3,0.4l-0.2,0.4l-0.3,0.3l-0.3,0.4l-0.3,0.3l-0.3,0.3l-0.3,0.3l-0.3,0.3L255,473.6L255,473.6z
		 M242.3,479v-5.9l0,0h0.3h0.3l0.3,0l0.3,0l0.3,0l0.3,0l0.3-0.1l0.3-0.1l0.3-0.1l0.3-0.1l0.3-0.1l0.3-0.1l0.3-0.1l0.3-0.1l0.3-0.1
		l0.3-0.1l0.3-0.1l0.3-0.1l0.3-0.1l0.3-0.1l0.2-0.1l0.3-0.2l0.2-0.1l0.3-0.2l0.2-0.2l0.3-0.2l0.2-0.2l0.2-0.2l0.3-0.2l0.2-0.2
		l0.2-0.2l0.2-0.2l4.2,4.1l-0.3,0.3l-0.3,0.3l-0.3,0.3l-0.3,0.3l-0.3,0.3l-0.4,0.3l-0.3,0.3l-0.4,0.3l-0.4,0.3l-0.4,0.2l-0.4,0.2
		l-0.4,0.2l-0.4,0.2l-0.4,0.2l-0.4,0.2l-0.4,0.2l-0.4,0.2l-0.4,0.1l-0.4,0.1l-0.4,0.1l-0.4,0.1l-0.4,0.1l-0.4,0.1l-0.4,0.1l-0.5,0.1
		l-0.4,0.1l-0.5,0.1l-0.4,0.1l-0.5,0l-0.5,0h-0.5L242.3,479L242.3,479z M229.8,473.7l4.2-4.1l0,0l0.2,0.2l0.2,0.2l0.2,0.2l0.2,0.2
		l0.3,0.2l0.2,0.2l0.3,0.2l0.2,0.2l0.3,0.1l0.2,0.2l0.3,0.1l0.3,0.1l0.2,0.1l0.3,0.1l0.3,0.1l0.3,0.1l0.3,0.1l0.3,0.1l0.3,0.1
		l0.3,0.1l0.3,0.1l0.3,0.1l0.3,0.1l0.3,0.1l0.3,0.1l0.3,0.1l0.3,0l0.3,0l0.3,0l0.3,0h0.3h0.3v5.9l-0.4,0h-0.5l-0.4,0l-0.5,0
		l-0.4-0.1l-0.5-0.1l-0.4-0.1l-0.4-0.1l-0.4-0.1l-0.4-0.1l-0.4-0.1l-0.4-0.1l-0.4-0.1l-0.4-0.1l-0.4-0.1l-0.4-0.2l-0.4-0.2l-0.4-0.2
		l-0.4-0.2l-0.4-0.2l-0.4-0.2l-0.4-0.2l-0.4-0.3l-0.4-0.2l-0.3-0.3l-0.4-0.3l-0.3-0.3l-0.3-0.3l-0.3-0.3l-0.3-0.3l-0.3-0.3
		L229.8,473.7L229.8,473.7z M229.8,473.7c-1.1-1.2-1.1-3,0.1-4.2s3-1.1,4.2,0L229.8,473.7z M224.6,461h5.9l0,0v0.3v0.3l0,0.3l0,0.3
		l0,0.3l0,0.3l0.1,0.3l0,0.3l0.1,0.3l0.1,0.3l0.1,0.3l0.1,0.3l0.1,0.3l0.1,0.3l0.1,0.3l0.1,0.3l0.1,0.3l0.1,0.3l0.1,0.3l0.1,0.3
		l0.1,0.2l0.1,0.3l0.1,0.3l0.2,0.3l0.2,0.2l0.2,0.3l0.2,0.3l0.2,0.2l0.2,0.2l0.2,0.3l0.2,0.2l0.2,0.2l-4.2,4.1l-0.3-0.3l-0.3-0.3
		l-0.3-0.3l-0.3-0.3l-0.3-0.4l-0.3-0.3l-0.3-0.4l-0.3-0.4l-0.2-0.4l-0.2-0.4l-0.2-0.4l-0.2-0.4l-0.2-0.4l-0.2-0.4l-0.2-0.4l-0.2-0.4
		l-0.2-0.4l-0.1-0.4l-0.1-0.4l-0.1-0.4l-0.1-0.4l-0.1-0.4l-0.1-0.4l-0.1-0.4l-0.1-0.5l-0.1-0.4l-0.1-0.4l-0.1-0.5l0-0.5l0-0.4v-0.5
		V461L224.6,461z M243.9,458.8l4.3-4l0,0l0.1,0.1l0.1,0.2l0.1,0.2l0.1,0.2l0.1,0.2l0.1,0.2l0.1,0.2l0.1,0.2l0.1,0.2l0.1,0.2l0.1,0.2
		l0.1,0.2l0.1,0.2l0.1,0.2l0.1,0.2l0.1,0.2l0.1,0.2l0.1,0.2l0.1,0.2l0.1,0.2l0.1,0.2l0.1,0.2l0.1,0.2l0,0.2l0,0.2l0,0.2l0,0.2l0,0.2
		v0.2l0,0.2v0.2v0.2h-5.9v-0.1v-0.1v-0.1v-0.1l0-0.1v-0.1v-0.1l0-0.1v-0.1l0-0.1l0-0.1V460l0-0.1l0-0.1v-0.1l0-0.1l0-0.1l0-0.1
		l0-0.1l0-0.1l0-0.1l0-0.1l-0.1-0.1l0-0.1l0-0.1l-0.1-0.1l0-0.1l-0.1-0.1l0-0.1l-0.1-0.1L243.9,458.8L243.9,458.8L243.9,458.8z
		 M242.3,458v-5.9l0,0h0.2h0.2l0.2,0h0.2l0.2,0l0.2,0l0.2,0l0.2,0.1l0.2,0l0.2,0.1l0.2,0.1l0.2,0.1l0.2,0.1l0.2,0.1l0.2,0.1l0.2,0.1
		l0.2,0.1l0.2,0.1l0.2,0.1l0.2,0.1l0.2,0.1l0.2,0.1l0.2,0.1l0.2,0.1l0.2,0.1l0.1,0.1l0.2,0.1l0.2,0.1l0.1,0.1l0.1,0.1l0.2,0.1
		l0.1,0.2l-4.3,4l-0.1-0.1l-0.1-0.1l-0.1-0.1l-0.1-0.1l-0.1-0.1l0,0l-0.1-0.1l-0.1,0l-0.1,0l-0.1,0l0,0l-0.1,0l-0.1,0l0,0l-0.1,0
		l-0.1,0l0,0H243l-0.1,0h0l-0.1,0h-0.1l-0.1,0h0l-0.1,0h-0.1h-0.1h-0.1l-0.1,0h-0.1H242.3L242.3,458L242.3,458z M240.7,458.7l-4.4-4
		l0,0l0.1-0.1l0.1-0.2l0.1-0.1l0.2-0.1l0.1-0.1l0.2-0.1l0.1-0.1l0.2-0.1l0.2-0.1l0.2-0.1l0.2-0.1l0.2-0.1l0.2-0.1l0.2-0.1l0.2-0.1
		l0.2-0.1l0.2-0.1l0.2-0.1l0.2-0.1l0.2-0.1l0.2-0.1l0.2-0.1l0.2-0.1l0.2,0l0.2-0.1l0.2,0l0.2,0l0.2,0h0.2l0.2,0h0.2h0.2v5.9h-0.1
		h-0.1h-0.1l-0.1,0H242h-0.1h-0.1l-0.1,0h0h-0.1l-0.1,0h0l-0.1,0l0,0h-0.1l0,0h-0.1l0,0l-0.1,0l0,0l-0.1,0l0,0l-0.1,0l0,0l-0.1,0
		l-0.1,0.1l0,0l-0.1,0l-0.1,0.1l-0.1,0.1L240.7,458.7L240.7,458.7L240.7,458.7z M240,461h-5.9l0,0v-0.2v-0.2l0-0.2v-0.2l0-0.2l0-0.2
		l0-0.2l0-0.2l0-0.2l0-0.2l0.1-0.2l0.1-0.2l0.1-0.2l0.1-0.2l0.1-0.2l0.1-0.2l0.1-0.2l0.1-0.2l0.1-0.2l0.1-0.2l0.1-0.2l0.1-0.2
		l0.1-0.2l0.1-0.2l0.1-0.2l0.1-0.2l0.1-0.2l0.1-0.2l0.1-0.2l0.1-0.1l0.1-0.2l0.1-0.2l4.4,4l-0.1,0l0,0.1l-0.1,0.1l0,0.1l-0.1,0.1
		l0,0.1l0,0.1l0,0.1l-0.1,0.1l0,0.1l0,0.1l0,0.1l0,0.1l0,0.1l0,0.1l0,0.1v0.1l0,0.1l0,0.1l0,0.1v0.1l0,0.1l0,0.1v0.1v0.1l0,0.1v0.1
		l0,0.1v0.1v0.1v0.1V461L240,461z M240.7,463.2l-4.4,3.9l0,0l-0.1-0.1l-0.1-0.2l-0.1-0.2l-0.1-0.2l-0.1-0.2l-0.1-0.2l-0.1-0.2
		l-0.1-0.2l-0.1-0.2l-0.1-0.2l-0.1-0.2l-0.1-0.2l-0.1-0.2l-0.1-0.2l-0.1-0.2l-0.1-0.2l-0.1-0.2l-0.1-0.2l-0.1-0.2l-0.1-0.2l-0.1-0.2
		l-0.1-0.2l0-0.2l0-0.2l0-0.2l0-0.2l0-0.2l0-0.2v-0.2l0-0.2v-0.2V461h5.9v0.1v0.1v0.1v0.1l0,0.1v0.1v0.1l0,0.1v0.1l0,0.1l0,0.1v0.1
		l0,0.1l0,0.1v0.1l0,0.1l0,0.1l0,0.1l0,0.1l0,0.1l0,0.1l0,0.1l0,0.1l0,0.1l0.1,0.1l0,0.1l0,0.1l0.1,0.1l0,0.1l0.1,0.1L240.7,463.2
		L240.7,463.2L240.7,463.2z M242.3,463.9v5.9l0,0h-0.2l-0.2,0h-0.2l-0.2,0l-0.2,0l-0.2,0l-0.2,0l-0.2,0l-0.2-0.1l-0.2-0.1l-0.2-0.1
		l-0.2-0.1l-0.2-0.1l-0.2-0.1l-0.2-0.1l-0.2-0.1l-0.2-0.1l-0.2-0.1l-0.2-0.1l-0.2-0.1l-0.2-0.1l-0.2-0.1l-0.2-0.1l-0.2-0.1l-0.2-0.1
		l-0.1-0.1l-0.2-0.1l-0.1-0.1l-0.2-0.1l-0.1-0.1l-0.1-0.1l-0.1-0.2l4.4-3.9l0.1,0.1l0.1,0.1l0,0l0.1,0.1l0.1,0.1l0,0l0.1,0l0.1,0
		l0,0.1l0.1,0l0,0l0.1,0h0l0.1,0l0,0l0.1,0h0l0.1,0h0l0.1,0l0,0h0.1h0.1l0,0h0.1h0.1l0.1,0h0.1h0.1h0.1H242.3L242.3,463.9
		L242.3,463.9z M244,463.1l4.3,4.1l0,0l-0.2,0.1l-0.1,0.1l-0.1,0.1l-0.2,0.1l-0.1,0.1l-0.2,0.1l-0.2,0.1l-0.2,0.1l-0.2,0.1l-0.2,0.1
		l-0.2,0.1l-0.2,0.1l-0.2,0.1l-0.2,0.1l-0.2,0.1l-0.2,0.1l-0.2,0.1l-0.2,0.1l-0.2,0.1l-0.2,0.1l-0.2,0.1l-0.2,0.1l-0.2,0l-0.2,0.1
		l-0.2,0l-0.2,0l-0.2,0l-0.2,0l-0.2,0h-0.2l-0.2,0h-0.2v-5.9h0.1h0.1h0.1h0.1h0.1l0.1,0h0.1h0.1l0.1,0h0.1l0.1,0h0l0.1,0h0.1l0.1,0
		l0,0l0.1,0h0l0.1,0l0.1,0l0.1,0l0,0l0.1,0l0.1-0.1l0.1,0l0,0l0.1-0.1l0.1,0l0.1-0.1l0.1-0.1L244,463.1L244,463.1L244,463.1z
		 M244.8,461h5.9l0,0v0.2v0.2l0,0.2v0.2l0,0.2l0,0.2l0,0.2l0,0.2l0,0.2l-0.1,0.2l0,0.2l-0.1,0.2l-0.1,0.2l-0.1,0.2l-0.1,0.2
		l-0.1,0.2l-0.1,0.2l-0.1,0.2l-0.1,0.2l-0.1,0.2l-0.1,0.2l-0.1,0.2l-0.1,0.2l-0.1,0.2l-0.1,0.2l-0.1,0.2l-0.1,0.2l-0.1,0.2l-0.1,0.2
		l-0.1,0.2l-0.1,0.1l-0.1,0.2l-4.3-4.1l0.1-0.1l0.1,0l0.1-0.1l0-0.1l0.1-0.1l0-0.1l0-0.1l0.1-0.1l0-0.1l0-0.1l0-0.1l0-0.1l0-0.1
		l0-0.1l0-0.1l0-0.1l0-0.1v-0.1l0-0.1l0-0.1v-0.1l0-0.1l0-0.1v-0.1l0-0.1v-0.1v-0.1l0-0.1v-0.1v-0.1V461L244.8,461L244.8,461z
		 M286.5,461.7v26.5h-5.9v-26.5l0,0H286.5z M278.1,458.1v-5.9l0,0h0.5l0.5,0l0.4,0.1l0.5,0.1l0.4,0.1l0.4,0.1l0.4,0.1l0.4,0.1
		l0.4,0.2l0.4,0.2l0.4,0.2l0.4,0.3l0.4,0.3l0.3,0.3l0.3,0.3l0.3,0.3l0.3,0.3l0.3,0.4l0.2,0.4l0.2,0.4l0.2,0.4l0.2,0.4l0.1,0.4
		l0.1,0.4l0.1,0.4l0.1,0.5l0.1,0.4l0.1,0.5l0.1,0.5l0,0.5l0,0.5v0.5h-5.9v-0.3l0-0.3v-0.3l0-0.3l-0.1-0.3l0-0.2l-0.1-0.2l0-0.2
		l-0.1-0.2l-0.1-0.2l-0.1-0.1l-0.1-0.1l-0.1-0.1l-0.1-0.1l-0.1-0.1l-0.1-0.1l-0.1-0.1l-0.1-0.1l-0.1,0l-0.1-0.1l-0.1,0l-0.1-0.1
		l-0.1,0l-0.1-0.1l-0.1,0l-0.1,0l-0.1-0.1l-0.2,0l-0.2,0h-0.2l-0.2,0H278.1L278.1,458.1z M276.2,458.8l-4.2-4.1l0,0l0.1-0.1l0.2-0.1
		l0.1-0.1l0.2-0.1l0.1-0.1l0.2-0.1l0.2-0.1l0.2-0.1l0.2-0.1l0.2-0.1l0.2-0.1l0.2-0.1l0.2-0.1l0.2-0.1l0.2-0.1l0.2-0.1l0.2-0.1
		l0.2-0.1l0.2-0.1l0.2-0.1l0.2-0.1l0.2,0l0.2-0.1l0.2,0l0.2,0l0.2,0l0.2,0l0.2,0l0.2,0h0.2h0.2h0.2v5.9H278h-0.1h-0.1l-0.1,0h-0.1
		h-0.1l-0.1,0h-0.1h-0.1l-0.1,0h-0.1l-0.1,0l-0.1,0H277l0,0l-0.1,0h-0.1l-0.1,0l0,0l-0.1,0h-0.1l0,0l-0.1,0l0,0l-0.1,0l0,0l-0.1,0.1
		l0,0l0,0L276.2,458.8L276.2,458.8L276.2,458.8L276.2,458.8z M275.6,461h-5.9l0,0v-0.2v-0.2v-0.2l0-0.2v-0.2l0-0.2l0-0.2l0-0.2
		l0-0.2l0.1-0.2l0-0.2l0.1-0.2l0.1-0.2l0.1-0.2l0.1-0.2l0.1-0.2l0.1-0.2l0.1-0.2l0.1-0.2l0.1-0.2l0.1-0.2l0.1-0.2l0.1-0.2l0.1-0.2
		l0.1-0.2l0.1-0.2l0.1-0.2l0.1-0.2l0.1-0.2l0.1-0.1l0.1-0.2l0.1-0.2l4.2,4.1l0,0.1l-0.1,0l0,0l0,0.1l0,0l0,0.1l0,0l0,0.1l0,0.1l0,0
		l0,0.1l0,0.1l0,0.1l0,0.1v0.1l0,0.1l0,0.1l0,0.1v0.1l0,0.1l0,0.1v0.1l0,0.1v0.1l0,0.1v0.1l0,0.1v0.1v0.1v0.1v0.1V461L275.6,461z
		 M276.3,463.2l-4.3,4l0,0l-0.1-0.2l-0.1-0.2l-0.1-0.1l-0.1-0.2l-0.1-0.2l-0.1-0.2l-0.1-0.2l-0.1-0.2l-0.1-0.2l-0.1-0.2l-0.1-0.2
		l-0.1-0.2l-0.1-0.2l-0.1-0.2l-0.1-0.2l-0.1-0.2l-0.1-0.2l-0.1-0.2l-0.1-0.2l-0.1-0.2l-0.1-0.2l0-0.2l-0.1-0.2l0-0.2l0-0.2l0-0.2
		l0-0.2v-0.2l0-0.2v-0.2v-0.2V461h5.9v0.1v0.1v0.1v0.1v0.1l0,0.1v0.1l0,0.1v0.1l0,0.1v0.1l0,0.1l0,0.1v0.1l0,0.1l0,0.1l0,0.1l0,0.1
		l0,0.1v0.1l0,0.1l0,0.1l0,0.1l0,0.1l0.1,0l0,0.1l0,0.1l0,0l0,0.1l0,0L276.3,463.2L276.3,463.2L276.3,463.2z M278.3,463.9v5.9l0,0
		h-0.2l-0.2,0h-0.2l-0.2,0h-0.2l-0.2,0l-0.2,0l-0.2,0l-0.2-0.1l-0.2,0l-0.2-0.1l-0.2-0.1l-0.2-0.1l-0.2-0.1l-0.2-0.1l-0.2-0.1
		l-0.2-0.1l-0.2-0.1l-0.2-0.1l-0.2-0.1l-0.2-0.1l-0.2-0.1l-0.2-0.1l-0.2-0.1l-0.2-0.1l-0.2-0.1l-0.2-0.1l-0.2-0.1l-0.2-0.1l-0.1-0.1
		l-0.2-0.2l-0.1-0.1l4.3-4l0.1,0l0,0l0,0l0.1,0.1l0,0l0,0l0.1,0l0,0l0.1,0l0.1,0l0,0l0.1,0l0,0h0.1l0.1,0l0.1,0l0.1,0h0.1l0.1,0
		l0.1,0h0.1l0.1,0l0.1,0h0.1l0.1,0h0.1h0.1l0.1,0h0.1h0.1h0.1H278.3L278.3,463.9z M279.4,463.7l1.6,5.7l0,0l-0.1,0h-0.1l-0.1,0
		l-0.1,0l-0.1,0h-0.1l-0.1,0l-0.1,0h-0.1l-0.1,0h-0.1l-0.1,0l-0.1,0h-0.1l-0.1,0h-0.1h-0.1l-0.1,0h-0.1l-0.1,0h-0.1h-0.1h-0.1
		l-0.1,0h-0.1h-0.1h-0.1h-0.1l-0.1,0h-0.1h-0.1h-0.1v-5.9h0h0h0l0,0h0h0h0h0h0h0h0h0h0l0,0h0h0h0h0l0.1,0h0h0.1h0l0,0h0.1h0l0,0h0.1
		h0l0.1,0L279.4,463.7L279.4,463.7L279.4,463.7L279.4,463.7z M284.9,466.6l-5.8-1.2l3.9,3.4l-0.1,0l-0.1,0l-0.1,0h-0.1l-0.1,0
		l-0.1,0l-0.1,0h-0.1l-0.1,0l-0.1,0l-0.1,0h-0.1l-0.1,0l-0.1,0h-0.1l-0.1,0l-0.1,0h-0.1l-0.1,0l-0.1,0h-0.1l-0.1,0l-0.1,0h-0.1
		l-0.1,0l-0.1,0h-0.1l-0.1,0l-0.1,0l-0.1,0h-0.1l-0.1,0l-1.6-5.7l0.1,0h0.1l0.1,0h0.1l0.1,0l0.1,0h0l0.1,0h0.1l0.1,0h0.1l0.1,0
		l0.1,0h0.1l0.1,0h0.1l0,0h0.1l0.1,0h0.1l0.1,0l0,0h0.1l0,0h0.1l0.1,0h0l0.1,0h0l0.1,0h0l0.1,0L284.9,466.6z M281.1,463.2
		c1.5-0.5,3.2,0.3,3.8,1.8s-0.3,3.2-1.8,3.7L281.1,463.2z M277,475.3l2.1-9.9l5.8,1.2l-2.2,9.9l-2.6,2.3L277,475.3z M282.8,476.5
		c-0.3,1.6-1.9,2.6-3.5,2.2c-1.6-0.3-2.6-1.9-2.3-3.5L282.8,476.5z M277.7,473.2l1.9-0.2l0.5,5.8l-1.9,0.2l-0.3,0L277.7,473.2z
		 M278.2,479c-1.6,0.1-3-1-3.2-2.7c-0.2-1.6,1-3,2.7-3.2L278.2,479z M265.2,473.8l4.3-4.1l0,0l0.2,0.2l0.2,0.2l0.2,0.2l0.2,0.2
		l0.2,0.2l0.2,0.2l0.2,0.2l0.2,0.1l0.2,0.2l0.3,0.1l0.2,0.1l0.3,0.1l0.2,0.1l0.3,0.1l0.3,0.1l0.3,0.1l0.3,0.1l0.3,0.1l0.3,0.1
		l0.3,0.1l0.3,0.1l0.3,0.1l0.3,0.1l0.3,0.1l0.3,0l0.3,0.1l0.3,0l0.3,0l0.3,0l0.3,0h0.3h0.3v5.9l-0.5,0h-0.5l-0.5,0l-0.5,0l-0.5-0.1
		l-0.4-0.1l-0.5-0.1l-0.5-0.1l-0.4-0.1l-0.4-0.1l-0.4-0.1l-0.4-0.1l-0.4-0.1l-0.4-0.1l-0.4-0.1l-0.4-0.2l-0.4-0.2l-0.4-0.2l-0.4-0.2
		l-0.4-0.2l-0.4-0.2l-0.4-0.2l-0.4-0.2l-0.4-0.2l-0.4-0.3l-0.3-0.3l-0.3-0.3l-0.3-0.3l-0.3-0.3l-0.3-0.3l-0.3-0.3L265.2,473.8
		L265.2,473.8z M260.2,461h5.9l0,0v0.3l0,0.3v0.3l0,0.3l0,0.3l0.1,0.3l0,0.3l0.1,0.3l0.1,0.3l0.1,0.3l0.1,0.3l0.1,0.3l0.1,0.3
		l0.1,0.3l0.1,0.3l0.1,0.3l0.1,0.3l0.1,0.3l0.1,0.3l0.1,0.3l0.1,0.3l0.1,0.2l0.1,0.3l0.1,0.3l0.2,0.2l0.2,0.2l0.2,0.2l0.2,0.2
		l0.2,0.3l0.2,0.2l0.2,0.2l0.2,0.2l-4.3,4.1l-0.3-0.3l-0.3-0.3l-0.3-0.3l-0.3-0.3l-0.3-0.4l-0.3-0.3l-0.3-0.4l-0.3-0.3l-0.2-0.4
		l-0.2-0.4l-0.2-0.4l-0.2-0.4l-0.2-0.4l-0.2-0.4l-0.2-0.4l-0.2-0.4l-0.2-0.4l-0.1-0.4l-0.1-0.4l-0.1-0.4l-0.1-0.4l-0.1-0.4l-0.1-0.4
		l-0.1-0.5l-0.1-0.5l-0.1-0.4l-0.1-0.5l0-0.5l0-0.5l0-0.5l0-0.5V461L260.2,461z M265.3,448.1l4.2,4.1l0,0l-0.2,0.2l-0.2,0.2
		l-0.2,0.2l-0.2,0.2l-0.2,0.2l-0.2,0.2l-0.2,0.3L268,454l-0.2,0.2l-0.1,0.3l-0.1,0.3l-0.1,0.2l-0.1,0.3l-0.1,0.3l-0.1,0.3L267,456
		l-0.1,0.3l-0.1,0.3l-0.1,0.3l-0.1,0.3l-0.1,0.3l-0.1,0.3l-0.1,0.3l-0.1,0.3l-0.1,0.3l0,0.3l-0.1,0.3l0,0.3l0,0.3v0.3l0,0.3v0.4
		h-5.9v-0.5l0-0.5l0-0.5l0-0.5l0-0.5l0.1-0.5l0.1-0.5l0.1-0.5l0.1-0.4l0.1-0.5l0.1-0.4l0.1-0.4l0.1-0.4l0.1-0.4l0.1-0.4l0.1-0.4
		l0.2-0.4l0.2-0.4l0.2-0.4l0.2-0.4l0.2-0.4l0.2-0.4l0.2-0.4l0.2-0.4l0.3-0.4l0.3-0.3l0.3-0.4l0.3-0.3l0.3-0.3l0.3-0.3l0.3-0.3
		L265.3,448.1L265.3,448.1z M278,443v5.9l0,0h-0.3l-0.3,0H277l-0.3,0l-0.3,0l-0.3,0.1l-0.3,0l-0.3,0.1l-0.3,0.1l-0.3,0.1l-0.3,0.1
		l-0.3,0.1l-0.3,0.1l-0.3,0.1l-0.3,0.1l-0.3,0.1l-0.3,0.1l-0.3,0.1l-0.3,0.1l-0.2,0.1l-0.3,0.1l-0.2,0.1l-0.3,0.1l-0.2,0.2l-0.2,0.2
		l-0.2,0.1l-0.2,0.2l-0.2,0.2l-0.2,0.2l-0.2,0.2l-0.2,0.2l-0.2,0.2l-4.2-4.1l0.3-0.3l0.3-0.3l0.3-0.3l0.3-0.3l0.3-0.3l0.3-0.3
		l0.3-0.3l0.4-0.3l0.4-0.3l0.4-0.2l0.4-0.2l0.4-0.2l0.4-0.2l0.4-0.2l0.4-0.2l0.4-0.2l0.4-0.2l0.4-0.1l0.4-0.1l0.4-0.1l0.4-0.1
		l0.4-0.1l0.4-0.1l0.4-0.1l0.5-0.1l0.4-0.1l0.5-0.1l0.5,0l0.5-0.1h0.5l0.5,0H278L278,443z M286.1,447.6l4,4.3h-4l-0.2-0.2l-0.2-0.2
		l-0.2-0.2l-0.2-0.2L285,451l-0.2-0.1l-0.2-0.2l-0.2-0.1l-0.3-0.1l-0.2-0.1l-0.2-0.1l-0.2-0.1l-0.3-0.1l-0.2-0.1l-0.3-0.1l-0.3-0.1
		l-0.2-0.1l-0.3-0.1l-0.3-0.1l-0.3-0.1l-0.3-0.1l-0.3-0.1l-0.3-0.1l-0.3-0.1l-0.3,0l-0.3-0.1l-0.3,0l-0.3,0l-0.3,0h-0.3l-0.3,0H278
		V443h0.4h0.4l0.4,0l0.4,0l0.4,0.1l0.4,0l0.4,0.1l0.4,0.1l0.4,0.1l0.4,0.1l0.4,0.1l0.4,0.1l0.4,0.1l0.4,0.1l0.4,0.1l0.4,0.1l0.4,0.2
		l0.4,0.1l0.4,0.2l0.4,0.2l0.4,0.2l0.4,0.2l0.3,0.2l0.4,0.2l0.3,0.2l0.3,0.2l0.3,0.3l0.3,0.2l0.3,0.3l0.3,0.3l0.3,0.3l0.3,0.3H286.1
		z M290.1,447.6c1.2,1.1,1.3,2.9,0.2,4.2c-1.1,1.2-2.9,1.2-4.2,0.2L290.1,447.6z M298.2,443v5.9l0,0h-0.3l-0.3,0h-0.3l-0.3,0l-0.3,0
		l-0.3,0l-0.3,0.1l-0.3,0l-0.3,0.1l-0.3,0.1l-0.3,0.1l-0.3,0.1l-0.3,0.1l-0.3,0.1l-0.3,0.1l-0.3,0.1l-0.2,0.1l-0.3,0.1l-0.2,0.1
		l-0.3,0.1l-0.2,0.1l-0.2,0.1l-0.3,0.1l-0.2,0.1l-0.2,0.1l-0.2,0.2l-0.2,0.1l-0.2,0.2l-0.2,0.2l-0.2,0.2l-0.2,0.2l-0.2,0.2l-4-4.3
		l0.3-0.3l0.3-0.3l0.3-0.3l0.3-0.3l0.3-0.2l0.3-0.3l0.3-0.2l0.3-0.2l0.4-0.2l0.3-0.2l0.4-0.2l0.4-0.2l0.4-0.2l0.4-0.2l0.4-0.1
		l0.4-0.2l0.4-0.1l0.4-0.1l0.4-0.1l0.4-0.1l0.4-0.1l0.4-0.1l0.4-0.1l0.4-0.1l0.4-0.1l0.4-0.1l0.4,0l0.4-0.1l0.4,0l0.4,0h0.4H298.2
		L298.2,443z M310.9,448.1l-4.2,4.1l0,0l-0.2-0.2l-0.2-0.2l-0.2-0.2l-0.2-0.2l-0.2-0.2l-0.2-0.2l-0.2-0.1l-0.2-0.2l-0.2-0.1
		l-0.3-0.2l-0.2-0.1l-0.3-0.1l-0.3-0.1l-0.2-0.1l-0.3-0.1l-0.3-0.1l-0.3-0.1l-0.3-0.1l-0.3-0.1l-0.3-0.1l-0.3-0.1l-0.3-0.1l-0.3-0.1
		l-0.3-0.1l-0.3-0.1l-0.3,0l-0.3-0.1l-0.3,0l-0.3,0h-0.3l-0.3,0h-0.3V443h0.5l0.5,0h0.5l0.5,0.1l0.5,0l0.5,0.1l0.4,0.1l0.5,0.1
		l0.4,0.1l0.4,0.1l0.4,0.1l0.4,0.1l0.4,0.1l0.4,0.1l0.4,0.1l0.4,0.2l0.4,0.2l0.4,0.2l0.4,0.2l0.4,0.2l0.4,0.2l0.4,0.2l0.4,0.2
		l0.4,0.3l0.4,0.3l0.3,0.3l0.3,0.3l0.3,0.3l0.3,0.3l0.3,0.3l0.3,0.3L310.9,448.1L310.9,448.1z M310.9,448.1c1.1,1.1,1.1,3,0,4.1
		c-1.2,1.1-3,1.1-4.2,0L310.9,448.1z M316,461h-5.9l0,0l0-0.4v-0.3l0-0.3v-0.3l0-0.3l-0.1-0.3l0-0.3l-0.1-0.3l-0.1-0.3l-0.1-0.3
		l-0.1-0.3l-0.1-0.3l-0.1-0.3l-0.1-0.3l-0.1-0.3l-0.1-0.3l-0.1-0.3l-0.1-0.3l-0.1-0.3l-0.1-0.3l-0.1-0.2l-0.1-0.3l-0.1-0.3l-0.2-0.2
		l-0.1-0.2l-0.2-0.3l-0.2-0.2l-0.2-0.2l-0.2-0.2l-0.2-0.2l-0.2-0.2l-0.2-0.2l4.2-4.1l0.3,0.3l0.3,0.3l0.3,0.3l0.3,0.3l0.3,0.3
		l0.3,0.4l0.3,0.3l0.3,0.4l0.2,0.4l0.2,0.4l0.2,0.4l0.2,0.4l0.2,0.4l0.2,0.4l0.2,0.4l0.2,0.4l0.1,0.4l0.1,0.4l0.1,0.4l0.1,0.4
		l0.1,0.4l0.1,0.5l0.1,0.4l0.1,0.4l0.1,0.5l0.1,0.5l0,0.5l0.1,0.5l0,0.5l0,0.5v0.5L316,461L316,461z M310.9,473.8l-4.2-4.1l0,0
		l0.2-0.2l0.2-0.2l0.2-0.2l0.2-0.2l0.2-0.2l0.2-0.2l0.1-0.3l0.2-0.2l0.1-0.3l0.2-0.2l0.1-0.3l0.1-0.3l0.1-0.3l0.1-0.3l0.1-0.3
		l0.1-0.3l0.1-0.3l0.1-0.3l0.1-0.3l0.1-0.3l0.1-0.3l0.1-0.3l0.1-0.3l0.1-0.3l0.1-0.3l0-0.3l0.1-0.3l0-0.3V462l0-0.3v-0.3l0-0.3h5.9
		l0,0.5v0.5l0,0.5l0,0.5l-0.1,0.4l0,0.5l-0.1,0.5l-0.1,0.4l-0.1,0.5l-0.1,0.4l-0.1,0.4l-0.1,0.4l-0.1,0.4l-0.1,0.4l-0.1,0.4
		l-0.1,0.4l-0.2,0.4l-0.2,0.4l-0.2,0.4l-0.2,0.4l-0.2,0.4l-0.2,0.4l-0.2,0.4l-0.2,0.4l-0.3,0.4l-0.3,0.4l-0.3,0.3l-0.3,0.4l-0.3,0.3
		l-0.3,0.3l-0.3,0.3L310.9,473.8L310.9,473.8z M310.9,473.8c-1.1,1.2-3,1.2-4.2,0.1c-1.2-1.1-1.2-3-0.1-4.1L310.9,473.8z M297.9,479
		l0.5-5.8l-0.3,0h0.3h0.3l0.3,0l0.3,0l0.3,0l0.3,0l0.3-0.1l0.3,0l0.3-0.1l0.3-0.1l0.3-0.1l0.3-0.1l0.3-0.1l0.3-0.1l0.3-0.1l0.3-0.1
		l0.3-0.1l0.3-0.1l0.3-0.1l0.3-0.1l0.2-0.1l0.3-0.1l0.2-0.2l0.2-0.1l0.2-0.2l0.3-0.2l0.2-0.2l0.2-0.2l0.2-0.2l0.2-0.2l0.2-0.2
		l0.2-0.2l4.2,4.1l-0.3,0.3l-0.3,0.3l-0.3,0.3l-0.3,0.3l-0.3,0.3l-0.3,0.3l-0.4,0.3l-0.3,0.3l-0.4,0.3l-0.4,0.2l-0.4,0.2l-0.4,0.2
		l-0.4,0.2l-0.4,0.2l-0.4,0.2l-0.4,0.2l-0.4,0.2l-0.4,0.1l-0.4,0.1l-0.4,0.1l-0.4,0.1l-0.4,0.1l-0.4,0.1l-0.4,0.1l-0.5,0.1l-0.4,0.1
		l-0.5,0.1l-0.5,0.1l-0.5,0l-0.5,0h-0.5l-0.5,0L297.9,479z M298.2,479c-1.6,0-2.9-1.3-2.9-2.9s1.3-2.9,2.9-2.9V479z M296.6,473
		l1.9,0.2l-0.5,5.8l-1.9-0.2l-2.6-2.3L296.6,473z M296.1,478.8c-1.6-0.1-2.8-1.6-2.7-3.2c0.1-1.6,1.6-2.8,3.2-2.7L296.1,478.8z
		 M297.1,465.4l2.1,9.9l-5.8,1.2l-2.2-9.9l3.9-3.4L297.1,465.4z M291.3,466.6c-0.3-1.6,0.7-3.2,2.3-3.5c1.6-0.3,3.2,0.7,3.5,2.3
		L291.3,466.6z M297,463.8l-1.4,5.7l0,0l-0.1,0h-0.1l-0.1,0l-0.1,0h-0.1l-0.1,0l-0.1,0h-0.1l-0.1,0l-0.1,0h-0.1l-0.1,0l-0.1,0
		l-0.1,0h-0.1l-0.1,0l-0.1,0l-0.1,0l-0.1,0h-0.1l-0.1,0l-0.1,0l-0.1,0l-0.1,0l-0.1,0l-0.1,0l-0.1,0l-0.1,0l-0.1,0l-0.1,0l-0.1,0
		l-0.1,0l1.9-5.6l0.1,0l0.1,0l0.1,0h0.1l0.1,0l0.1,0l0.1,0l0.1,0h0.1l0.1,0l0.1,0l0.1,0h0.1l0.1,0l0.1,0h0.1l0.1,0l0.1,0h0.1l0.1,0
		h0.1l0,0h0.1l0.1,0h0.1l0.1,0h0l0.1,0h0.1L297,463.8L297,463.8L297,463.8L297,463.8z M297,463.8c1.6,0.4,2.6,2,2.2,3.6
		c-0.4,1.6-2,2.5-3.5,2.2L297,463.8z M297.9,463.9v5.9l0,0h-0.1h-0.1h-0.1h-0.1l-0.1,0h-0.1h-0.1h-0.1h-0.1h-0.1l-0.1,0H297H297
		h-0.1l-0.1,0h-0.1h-0.1l-0.1,0h-0.1h-0.1l-0.1,0h-0.1l-0.1,0h-0.1l-0.1,0h-0.1l-0.1,0h-0.1l-0.1,0h-0.1l-0.1,0h-0.1l1.4-5.7l0,0h0
		h0.1h0l0,0h0h0h0h0l0,0h0h0h0h0h0h0l0,0h0h0l0,0h0h0h0h0l0,0h0H297.9L297.9,463.9L297.9,463.9L297.9,463.9L297.9,463.9L297.9,463.9
		L297.9,463.9z M300,463.2l4.3,4l0,0l-0.1,0.1l-0.2,0.2l-0.2,0.1l-0.1,0.1l-0.2,0.1l-0.2,0.1l-0.2,0.1l-0.2,0.1l-0.2,0.1l-0.2,0.1
		l-0.2,0.1l-0.2,0.1l-0.2,0.1l-0.2,0.1l-0.2,0.1l-0.2,0.1l-0.2,0.1l-0.2,0.1l-0.2,0.1l-0.2,0.1l-0.2,0.1l-0.2,0.1l-0.2,0l-0.2,0.1
		l-0.2,0l-0.2,0l-0.2,0h-0.2l-0.2,0h-0.2l-0.2,0h-0.2v-5.9h0.1h0.1h0.1h0.1l0.1,0h0.1h0.1l0.1,0h0.1l0.1,0l0.1,0h0.1l0.1,0l0.1,0
		h0.1l0.1,0l0.1,0l0,0h0.1l0.1,0l0.1,0l0,0l0.1,0l0,0l0.1,0l0,0l0.1,0l0,0l0.1-0.1L300,463.2L300,463.2L300,463.2L300,463.2z
		 M300.6,461h5.9l0,0v0.2v0.2v0.2l0,0.2v0.2l0,0.2l0,0.2l0,0.2l0,0.2l-0.1,0.2l0,0.2l-0.1,0.2l-0.1,0.2l-0.1,0.2l-0.1,0.2l-0.1,0.2
		l-0.1,0.2l-0.1,0.2l-0.1,0.2l-0.1,0.2l-0.1,0.2l-0.1,0.2l-0.1,0.2l-0.1,0.2l-0.1,0.2l-0.1,0.2l-0.1,0.2l-0.1,0.2l-0.1,0.2l-0.1,0.1
		l-0.1,0.2l-0.1,0.2l-4.3-4l0-0.1l0-0.1l0.1,0l0-0.1l0,0l0-0.1l0-0.1l0,0l0-0.1l0-0.1l0-0.1l0-0.1l0-0.1l0-0.1l0-0.1l0-0.1l0-0.1
		v-0.1l0-0.1l0-0.1l0-0.1V462l0-0.1v-0.1l0-0.1v-0.1v-0.1l0-0.1v-0.1v-0.1v-0.1V461L300.6,461z M300,458.8l4.3-4l0,0l0.1,0.2
		l0.1,0.1l0.1,0.2l0.1,0.2l0.1,0.2l0.1,0.2l0.1,0.2l0.1,0.2l0.1,0.2l0.1,0.2l0.1,0.2l0.1,0.2l0.1,0.2l0.1,0.2l0.1,0.2l0.1,0.2
		l0.1,0.2l0.1,0.2l0.1,0.2l0.1,0.2l0.1,0.2l0,0.2l0.1,0.2l0,0.2l0,0.2l0,0.2l0,0.2v0.2l0,0.2v0.2v0.2v0.2h-5.9v-0.1v-0.1v-0.1v-0.1
		l0-0.1v-0.1v-0.1l0-0.1V460l0-0.1v-0.1l0-0.1l0-0.1v-0.1l0-0.1l0-0.1l0-0.1l0-0.1v-0.1l0-0.1l0,0l0-0.1l0-0.1l0-0.1l0,0l0-0.1l0,0
		l0-0.1l0,0L300,458.8L300,458.8L300,458.8L300,458.8z M298.2,458.1v-5.9l0,0h0.2h0.2h0.2l0.2,0l0.2,0l0.2,0l0.2,0l0.2,0l0.2,0
		l0.2,0.1l0.2,0l0.2,0.1l0.2,0.1l0.2,0.1l0.2,0.1l0.2,0.1l0.2,0.1l0.2,0.1l0.2,0.1l0.2,0.1l0.2,0.1l0.2,0.1l0.2,0.1l0.2,0.1l0.2,0.1
		l0.2,0.1l0.2,0.1l0.2,0.1l0.1,0.1l0.2,0.1l0.1,0.2l0.1,0.1l-4.3,4l0-0.1l0,0l0,0l-0.1,0l0,0l0,0l0,0l-0.1,0l0,0l0,0l-0.1,0h0
		l-0.1,0l0,0h-0.1l-0.1,0l-0.1,0l-0.1,0h-0.1l-0.1,0h-0.1l-0.1,0h-0.1l-0.1,0h-0.1l-0.1,0h-0.1h-0.1l-0.1,0h-0.1H298.2L298.2,458.1
		L298.2,458.1z M295.6,461.7h-5.9l0,0v-0.5l0-0.5l0-0.5l0.1-0.5l0.1-0.5l0.1-0.4l0.1-0.5l0.1-0.4l0.1-0.4l0.1-0.4l0.2-0.4l0.2-0.4
		l0.2-0.4l0.2-0.4l0.3-0.4l0.3-0.3l0.3-0.3l0.3-0.3l0.3-0.3l0.4-0.3l0.4-0.3l0.4-0.2l0.4-0.2l0.4-0.2l0.4-0.1l0.4-0.1l0.4-0.1
		l0.4-0.1l0.4-0.1l0.5-0.1l0.5,0h0.5v5.9h-0.2l-0.2,0h-0.2l-0.2,0l-0.1,0l-0.1,0.1l-0.1,0l-0.1,0l-0.1,0.1l-0.1,0l-0.1,0.1l-0.1,0
		l-0.1,0.1l-0.1,0l0,0.1l-0.1,0.1l-0.1,0.1l-0.1,0.1l-0.1,0.1l-0.1,0.1l-0.1,0.1l-0.1,0.1l-0.1,0.2l-0.1,0.2l-0.1,0.2l0,0.2
		l-0.1,0.2l0,0.3l0,0.3v0.3l0,0.3V461.7L295.6,461.7z M289.7,488.1v-26.5h5.9v26.5l-2.9,2.9L289.7,488.1z M295.6,488.1
		c0,1.6-1.3,2.9-2.9,2.9s-2.9-1.3-2.9-2.9H295.6z M283.5,485.2h9.1v5.9h-9.1l-2.9-2.9L283.5,485.2z M283.5,491
		c-1.6,0-2.9-1.3-2.9-2.9c0-1.6,1.3-2.9,2.9-2.9V491z M337.6,472.6h9.2v5.9h-9.2l-2.9-2.9L337.6,472.6z M337.6,478.5
		c-1.6,0-2.9-1.3-2.9-2.9s1.3-2.9,2.9-2.9V478.5z M340.6,473.9v1.7h-5.9v-1.7l1.3-2.4L340.6,473.9z M334.7,473.9
		c0-1.6,1.3-2.9,2.9-2.9c1.6,0,2.9,1.3,2.9,2.9H334.7z M335.5,478.4l-2-5.6l0,0h0.1l0.1,0l0,0l0.1,0l0.1,0l0.1,0l0.1,0l0.1,0l0.1,0
		l0.1,0l0.1,0l0.1,0l0.1,0l0.1-0.1l0.1,0l0.1-0.1l0.1,0l0.1-0.1l0.1,0l0.1-0.1l0.1-0.1l0.1,0l0.1-0.1l0.1-0.1l0.1-0.1l0.1-0.1
		l0.1-0.1l0.1-0.1l0.1-0.1l0.1-0.1l0.1-0.1l0.1-0.1l3.3,4.8l-0.1,0.1l-0.1,0.1l-0.1,0.1l-0.1,0.1l-0.1,0.1l-0.1,0.1l-0.1,0.1
		l-0.1,0.1l-0.1,0.1l-0.1,0.1l-0.1,0.1l-0.1,0.1l-0.1,0.1l-0.1,0.1l-0.1,0.1l-0.1,0.1l-0.1,0.1l-0.1,0.1l-0.1,0.1l-0.1,0.1l-0.1,0.1
		l-0.1,0.1l-0.1,0.1l-0.1,0.1l-0.1,0.1l-0.1,0.1l-0.1,0l-0.1,0.1l-0.1,0.1l-0.1,0l-0.1,0.1L335.5,478.4L335.5,478.4z M331,479v-5.9
		l0,0h0.1h0.1h0.1h0.1h0.1h0.1h0.1l0.1,0h0.1h0.1h0.1l0.1,0h0.1h0.1l0.1,0h0.1h0.1l0.1,0h0.1l0.1,0h0.1l0.1,0h0.1l0.1,0h0.1l0.1,0
		h0.1l0,0h0.1l0.1,0h0l0.1,0l2,5.6l-0.1,0l-0.1,0.1l-0.1,0l-0.1,0l-0.1,0.1l-0.1,0l-0.1,0l-0.1,0l-0.1,0l-0.1,0l-0.1,0l-0.1,0
		l-0.1,0l-0.1,0l-0.1,0h-0.1l-0.1,0l-0.1,0H333l-0.1,0h-0.2l-0.1,0h-0.1h-0.1l-0.2,0h-0.1h-0.1h-0.2h-0.1l-0.2,0h-0.1H331L331,479z
		 M321.5,475.6l4-4.3l0,0l0.1,0.1l0.1,0.1l0.1,0.1l0.1,0.1l0.1,0.1l0.1,0.1l0.1,0.1l0.1,0.1l0.1,0.1l0.1,0.1l0.1,0.1l0.1,0.1
		l0.2,0.1l0.1,0.1l0.2,0.1l0.2,0.1l0.2,0.1l0.2,0.1l0.2,0.1l0.2,0l0.2,0.1l0.2,0l0.2,0.1l0.2,0l0.2,0l0.2,0h0.2l0.2,0l0.2,0h0.2h0.2
		h0.2v5.9h-0.3l-0.3,0H330l-0.3,0l-0.3,0l-0.3,0l-0.3-0.1l-0.3,0l-0.3-0.1l-0.3-0.1l-0.3-0.1l-0.3-0.1l-0.3-0.1l-0.3-0.1l-0.3-0.1
		l-0.3-0.1l-0.3-0.1l-0.3-0.1l-0.3-0.1l-0.3-0.1l-0.3-0.1l-0.3-0.1l-0.3-0.2l-0.3-0.1l-0.3-0.2l-0.3-0.2l-0.3-0.2l-0.3-0.2l-0.3-0.2
		l-0.3-0.2l-0.2-0.2L321.5,475.6L321.5,475.6z M321.5,475.6c-1.2-1.1-1.3-2.9-0.2-4.1c1.1-1.2,3-1.3,4.2-0.2L321.5,475.6z
		 M316.9,462.9h5.9l0,0v0.4v0.4l0,0.4l0,0.4l0,0.4l0,0.4l0,0.3l0.1,0.3l0.1,0.3l0.1,0.3l0.1,0.3l0.1,0.3l0.1,0.3l0.1,0.3l0.1,0.3
		l0.1,0.3l0.1,0.3l0.1,0.3l0.1,0.2l0.1,0.2l0.1,0.2l0.1,0.2l0.1,0.2l0.1,0.2l0.1,0.2l0.1,0.2l0.1,0.2l0.1,0.2l0.1,0.1l0.1,0.2
		l0.2,0.1l0.1,0.1l-4,4.3l-0.3-0.3l-0.3-0.3l-0.3-0.3l-0.3-0.3l-0.3-0.3l-0.3-0.3l-0.2-0.3l-0.2-0.3l-0.2-0.4l-0.2-0.3l-0.2-0.4
		l-0.2-0.4l-0.2-0.4l-0.2-0.4l-0.1-0.4l-0.1-0.4l-0.1-0.4l-0.1-0.4l-0.1-0.4l-0.1-0.4l-0.1-0.4l-0.1-0.4l-0.1-0.5l-0.1-0.5l-0.1-0.5
		l-0.1-0.5l-0.1-0.5l0-0.5l0-0.5l0-0.5v-0.5V462.9L316.9,462.9z M322.8,446.5v16.4h-5.9v-16.4l2.9-2.9L322.8,446.5z M316.9,446.5
		c0-1.6,1.3-2.9,2.9-2.9s2.9,1.3,2.9,2.9H316.9z M329.1,449.4h-9.2v-5.9h9.2l2.9,2.9L329.1,449.4z M329.1,443.5
		c1.6,0,2.9,1.3,2.9,2.9c0,1.6-1.3,2.9-2.9,2.9V443.5z M326.1,462v-15.6h5.9V462l0,0H326.1z M332.3,464.1l-4.3,4l0,0l-0.1-0.2
		l-0.1-0.2l-0.1-0.2l-0.1-0.2l-0.1-0.2l-0.1-0.2l-0.1-0.2l-0.1-0.2l-0.1-0.2l-0.1-0.2l-0.1-0.2l-0.1-0.2l-0.1-0.2l-0.1-0.2l-0.1-0.2
		l-0.1-0.2l0-0.2l-0.1-0.2l0-0.2l-0.1-0.2l0-0.2l0-0.2l0-0.2l0-0.2l0-0.2v-0.2l0-0.2v-0.2v-0.2l0-0.2v-0.2V462h5.9v0.1v0.1v0.1
		l0,0.1v0.1v0.1l0,0.1v0.1v0.1l0,0.1v0.1l0,0.1v0.1l0,0.1l0,0.1v0.1l0,0.1l0,0.1v0l0,0.1v0L332.3,464.1L332.3,464.1L332.3,464.1
		L332.3,464.1L332.3,464.1L332.3,464.1L332.3,464.1L332.3,464.1L332.3,464.1L332.3,464.1L332.3,464.1L332.3,464.1z M333.4,464.3v5.9
		l0,0h-0.2H333l-0.2,0h-0.2l-0.2,0h-0.2l-0.2,0l-0.2,0l-0.2,0l-0.2,0l-0.2-0.1l-0.2,0l-0.2-0.1l-0.2-0.1l-0.2-0.1l-0.2-0.1l-0.2-0.1
		l-0.2-0.1l-0.2-0.1l-0.2-0.1l-0.1-0.1l-0.2-0.1l-0.2-0.1l-0.2-0.1L329,469l-0.1-0.1l-0.2-0.1l-0.1-0.1l-0.1-0.1l-0.1-0.1l-0.1-0.1
		l-0.1-0.1l4.3-4l0,0v0h0l0,0l0,0l0,0l0,0l0,0h0v0h0l0,0l0,0h0l0,0h0l0,0h0l0,0h0.1h0l0.1,0h0h0.1h0.1l0.1,0h0.1h0.1h0.1h0.1H333.4
		L333.4,464.3L333.4,464.3z M334.3,464l4.4,4l0,0l-0.1,0.1l-0.1,0.1l-0.1,0.1l-0.1,0.1l-0.1,0.1l-0.1,0.1l-0.1,0.1l-0.1,0.1
		l-0.2,0.1l-0.1,0.1l-0.2,0.1l-0.2,0.1l-0.1,0.1l-0.2,0.1l-0.2,0.1l-0.2,0.1l-0.2,0.1l-0.2,0.1l-0.2,0.1l-0.2,0.1l-0.2,0.1l-0.2,0.1
		l-0.2,0l-0.2,0l-0.2,0l-0.2,0l-0.2,0l-0.2,0h-0.2l-0.2,0h-0.2h-0.2v-5.9h0.1h0.1h0.1h0h0.1h0h0.1l0,0h0h0h0l0,0h0h0l0,0h0h0v0h0h0
		l0,0l0,0l0,0l0,0l0,0h0L334.3,464L334.3,464L334.3,464L334.3,464L334.3,464L334.3,464L334.3,464z M334.3,464c1.1-1.2,3-1.3,4.2-0.2
		c1.2,1.1,1.3,3,0.2,4.2L334.3,464z M334.7,462.7h5.9l0,0v0.2v0.2l0,0.2v0.2l0,0.2v0.2l0,0.2l0,0.2l0,0.2l0,0.2l-0.1,0.2l0,0.2
		l-0.1,0.2l-0.1,0.2l-0.1,0.2l-0.1,0.2l-0.1,0.1l-0.1,0.2l-0.1,0.2l-0.1,0.2l-0.1,0.2l-0.1,0.1l-0.1,0.2l-0.1,0.1l-0.1,0.2l-0.1,0.1
		l-0.1,0.1l-0.1,0.1l-0.1,0.1l-0.1,0.1l-0.1,0.1l-0.1,0.1l-4.4-4l0,0l0,0l0,0l0,0v0l0,0l0,0v0l0,0v0l0,0l0,0v0l0,0v-0.1l0,0v0v-0.1
		l0,0v0l0-0.1v-0.1v0l0-0.1v-0.1v-0.1V463V463l0-0.1v-0.1V462.7L334.7,462.7L334.7,462.7z M340.6,446.5v16.2h-5.9v-16.2l2.9-2.9
		L340.6,446.5z M334.7,446.5c0-1.6,1.3-2.9,2.9-2.9c1.6,0,2.9,1.3,2.9,2.9H334.7z M346.9,449.4h-9.2v-5.9h9.2l2.9,2.9L346.9,449.4z
		 M346.9,443.5c1.6,0,2.9,1.3,2.9,2.9c0,1.6-1.3,2.9-2.9,2.9V443.5z M343.9,475.6v-29.1h5.9v29.1l-2.9,2.9L343.9,475.6z
		 M349.8,475.6c0,1.6-1.3,2.9-2.9,2.9s-2.9-1.3-2.9-2.9H349.8z M375.9,459v16.6H370V459l0,0H375.9z M369.8,457.8l4.5-3.8l0,0
		l0.1,0.1l0.1,0.1l0.1,0.1l0.1,0.1l0.1,0.1l0.1,0.1l0.1,0.2l0.1,0.1l0.1,0.1l0.1,0.1l0.1,0.2l0.1,0.1l0.1,0.2l0.1,0.1l0.1,0.2
		l0.1,0.1l0.1,0.2l0,0.2l0.1,0.1l0,0.2l0,0.2l0,0.1l0,0.2l0,0.2l0,0.2l0,0.1v0.2l0,0.2v0.2v0.2v0.1v0.2H370v-0.1v-0.1v-0.1v-0.1
		v-0.1v-0.1l0-0.1v-0.1v-0.1v0l0-0.1v-0.1v0l0,0v-0.1v0l0,0v0v0l0,0v0l0,0l0,0L369.8,457.8L369.8,457.8L369.8,457.8L369.8,457.8
		L369.8,457.8L369.8,457.8L369.8,457.8L369.8,457.8L369.8,457.8L369.8,457.8z M369.4,457.7v-5.9l0,0h0.2h0.2h0.2l0.1,0h0.2l0.2,0
		l0.2,0l0.2,0l0.2,0l0.2,0l0.2,0.1l0.1,0.1l0.2,0l0.2,0.1l0.2,0.1l0.1,0.1l0.2,0.1l0.2,0.1l0.1,0.1l0.1,0.1l0.2,0.1l0.1,0.1l0.1,0.1
		l0.1,0.1l0.1,0.1l0.1,0.1l0.1,0.1l0.1,0.1l0.1,0.1l0.1,0.1l0.1,0.1l0.1,0.1l-4.5,3.8h0v0l0,0l0,0l0,0l0,0l0,0l0,0h0l0,0l0,0l0,0
		l0,0l0,0l0,0l0,0l0,0v0h0l0,0l0,0h0l0,0h0h0h0l0,0h0h0H369.4L369.4,457.7L369.4,457.7L369.4,457.7z M369.2,457.9l-4.5-3.8l0,0
		l0.1-0.1l0.1-0.1l0.1-0.1l0.1-0.1l0.1-0.1l0.1-0.1l0.1-0.1l0.1-0.1l0.1-0.1l0.1-0.1l0.1-0.1l0.1-0.1l0.1-0.1l0.1-0.1l0.2-0.1
		l0.1-0.1l0.2-0.1l0.1-0.1l0.2-0.1l0.1-0.1l0.2-0.1l0.2-0.1l0.2,0l0.2,0l0.2-0.1l0.1,0h0.2l0.2,0l0.2,0h0.2h0.2h0.2v5.9h0h0l0,0l0,0
		h0l0,0l0,0h0l0,0l0,0l0,0l0,0l0,0v0v0l0,0v0v0l0,0v0l0,0l0,0h0l0,0l0,0l0,0L369.2,457.9L369.2,457.9L369.2,457.9L369.2,457.9
		L369.2,457.9L369.2,457.9L369.2,457.9z M368.9,459H363l0,0v-0.1v-0.2v-0.2v-0.2l0-0.1V458l0-0.2l0-0.2l0-0.1l0-0.2l0-0.1l0-0.2
		l0.1-0.2l0-0.1l0.1-0.2l0-0.2l0.1-0.1l0.1-0.1l0.1-0.2l0.1-0.1l0.1-0.2l0.1-0.1l0.1-0.1l0.1-0.1l0.1-0.2l0.1-0.1l0.1-0.1l0.1-0.1
		l0.1-0.1l0.1-0.1l0.1-0.1l0.1-0.1l4.5,3.8h0v0l0,0l0,0l0,0l0,0l0,0v0v0h0v0v0l0,0v0l0,0v0v0l0,0v0v0.1l0,0v0v0.1v0.1l0,0v0.1v0.1
		v0.1v0.1v0.1V459L368.9,459L368.9,459z M363,466.8V459h5.9v7.8l0,0H363z M364.6,475.9l-3.5-4.7l0,0l0.1-0.1l0.1-0.1l0.1-0.1
		l0.1-0.1l0.1-0.1l0.1-0.1l0.1-0.1l0.1-0.1l0.1-0.1l0.1-0.1l0.1-0.1l0.1-0.1l0.1-0.1l0.1-0.1l0.1-0.1l0.1-0.1l0.1-0.1l0.1-0.1l0-0.1
		l0.1-0.1l0.1-0.1l0-0.1l0.1-0.2l0-0.1l0-0.2l0-0.2l0-0.2v-0.2l0-0.2v-0.2V467l0-0.2h5.9l0,0.3v0.3l0,0.3l0,0.3l0,0.3l0,0.3
		l-0.1,0.3l-0.1,0.3l-0.1,0.3l-0.1,0.3l-0.1,0.3l-0.1,0.3l-0.1,0.3l-0.1,0.3l-0.1,0.3l-0.1,0.3l-0.1,0.3l-0.2,0.3l-0.1,0.3l-0.2,0.3
		l-0.2,0.3l-0.2,0.3l-0.2,0.3l-0.2,0.3l-0.2,0.3l-0.2,0.2l-0.2,0.3l-0.2,0.2l-0.2,0.2l-0.3,0.2l-0.3,0.2L364.6,475.9L364.6,475.9z
		 M350.4,475.9h5.9l-2.9-2.9h0.4h0.3h0.3l0.3,0l0.3,0h0.3l0.3,0l0.3,0l0.3-0.1l0.3,0l0.3,0l0.3-0.1l0.3-0.1l0.3,0l0.3-0.1l0.3-0.1
		l0.2-0.1l0.2-0.1l0.2-0.1l0.2-0.1l0.2-0.1l0.2-0.1l0.2-0.1l0.2-0.1l0.2-0.1l0.2-0.1l0.1-0.1l0.2-0.1l0.1-0.1l0.1-0.1l0.1-0.1
		l0.1-0.1l3.5,4.7l-0.3,0.2l-0.3,0.2l-0.3,0.2l-0.3,0.2l-0.3,0.2l-0.3,0.2l-0.3,0.1l-0.3,0.1l-0.3,0.1l-0.3,0.1l-0.3,0.1l-0.3,0.1
		l-0.3,0.1l-0.3,0.1l-0.3,0.1l-0.3,0.1l-0.4,0.1l-0.3,0.1l-0.4,0.1l-0.4,0.1l-0.4,0.1l-0.4,0.1l-0.4,0l-0.4,0.1l-0.4,0l-0.4,0
		l-0.4,0l-0.4,0l-0.4,0h-0.4l-0.4,0h-0.4L350.4,475.9z M353.3,478.8c-1.6,0-2.9-1.3-2.9-2.9s1.3-2.9,2.9-2.9V478.8z M356.3,469v6.9
		h-5.9V469l2.9-2.9L356.3,469z M350.4,469c0-1.6,1.3-2.9,2.9-2.9c1.6,0,2.9,1.3,2.9,2.9H350.4z M353.5,466.1l4.6,3.7l0,0l-0.1,0.1
		l-0.1,0.1l-0.1,0.1l-0.1,0.1l-0.1,0.1l-0.1,0.1l-0.1,0.1l-0.1,0.1l-0.1,0.1l-0.1,0.1l-0.1,0.1l-0.1,0.1l-0.1,0.1l-0.2,0.1l-0.1,0.1
		l-0.2,0.1l-0.1,0.1l-0.2,0.1l-0.2,0.1l-0.1,0.1l-0.2,0l-0.2,0.1l-0.1,0l-0.2,0l-0.2,0l-0.2,0l-0.1,0H354l-0.2,0h-0.1h-0.2h-0.2
		v-5.9h0.1h0L353.5,466.1L353.5,466.1L353.5,466.1L353.5,466.1L353.5,466.1L353.5,466.1L353.5,466.1L353.5,466.1L353.5,466.1
		L353.5,466.1L353.5,466.1L353.5,466.1L353.5,466.1L353.5,466.1L353.5,466.1L353.5,466.1L353.5,466.1L353.5,466.1L353.5,466.1
		L353.5,466.1L353.5,466.1L353.5,466.1L353.5,466.1L353.5,466.1L353.5,466.1L353.5,466.1L353.5,466.1L353.5,466.1L353.5,466.1
		L353.5,466.1L353.5,466.1z M353.5,466.1c1-1.3,2.9-1.4,4.2-0.4c1.2,1,1.4,2.9,0.4,4.1L353.5,466.1z M353.7,464.4h5.9l0,0v0.2v0.2
		v0.2v0.2l0,0.2v0.2v0.2l0,0.2l0,0.2v0.2l0,0.2l0,0.2l0,0.2l-0.1,0.2l0,0.2l0,0.2l-0.1,0.2l0,0.1l-0.1,0.2l-0.1,0.2l-0.1,0.2
		l-0.1,0.2l-0.1,0.2l-0.1,0.2l-0.1,0.1l-0.1,0.2l-0.1,0.1l-0.1,0.2l-0.1,0.2l-0.1,0.1l-0.1,0.1l-0.1,0.2l-4.6-3.7l0,0v0h0l0,0l0,0
		l0,0l0,0l0,0l0,0v0l0,0v0v0l0-0.1v0l0-0.1v-0.1l0-0.1v-0.1v-0.1l0-0.1v-0.1l0-0.1v-0.1v-0.1l0-0.1V465v-0.1v-0.1v-0.1v-0.1V464.4
		L353.7,464.4z M359.6,459.2v5.2h-5.9v-5.2l0,0H359.6z M358.1,447.7l4.3,4l0,0l-0.2,0.2L362,452l-0.1,0.2l-0.2,0.2l-0.1,0.2
		l-0.1,0.2l-0.1,0.2l-0.1,0.2l-0.1,0.2l-0.1,0.2l-0.1,0.2l-0.1,0.2l-0.1,0.2l-0.1,0.2l-0.1,0.2l-0.1,0.2l-0.1,0.2l-0.1,0.2l-0.1,0.3
		l-0.1,0.2l-0.1,0.3l-0.1,0.3l-0.1,0.3l0,0.3l-0.1,0.3l0,0.3l0,0.3l0,0.3l0,0.3v0.3v0.3l0,0.3h-5.9l0-0.4v-0.4l0-0.4l0-0.4l0-0.4
		l0.1-0.4l0-0.4l0.1-0.4l0.1-0.4l0.1-0.4l0.1-0.4l0.1-0.4l0.1-0.4l0.1-0.4l0.1-0.4l0.1-0.4l0.1-0.4l0.1-0.4l0.2-0.3l0.1-0.4l0.2-0.3
		l0.2-0.3l0.2-0.3l0.2-0.3l0.2-0.3l0.2-0.3l0.2-0.3l0.2-0.3l0.3-0.3l0.2-0.3l0.3-0.3L358.1,447.7L358.1,447.7z M358.1,447.7
		c1.1-1.2,3-1.3,4.2-0.2c1.2,1.1,1.2,3,0.1,4.2L358.1,447.7z M369.2,443v5.9l0,0H369l-0.3,0h-0.3l-0.3,0l-0.3,0l-0.3,0l-0.3,0
		l-0.2,0.1l-0.3,0l-0.2,0.1l-0.2,0.1l-0.2,0.1l-0.2,0.1l-0.2,0.1l-0.2,0.1l-0.2,0.1l-0.2,0.1l-0.2,0.1l-0.2,0.1l-0.2,0.1l-0.2,0.1
		l-0.2,0.1l-0.2,0.1l-0.2,0.1l-0.2,0.1l-0.2,0.1l-0.2,0.1l-0.2,0.1l-0.2,0.2l-0.2,0.2l-0.2,0.2l-0.2,0.2l-4.3-4l0.3-0.3l0.3-0.3
		l0.3-0.3l0.3-0.3l0.3-0.3l0.3-0.2l0.3-0.3l0.3-0.2l0.3-0.2l0.3-0.2l0.3-0.2l0.3-0.2l0.3-0.2l0.3-0.2l0.4-0.2l0.3-0.1l0.4-0.1
		l0.4-0.1l0.4-0.1l0.4-0.1l0.4-0.1l0.4-0.1l0.4-0.1l0.4-0.1l0.4-0.1l0.4-0.1l0.4,0l0.4-0.1l0.4,0l0.4,0h0.4H369.2L369.2,443z
		 M381.3,448.4l-4.5,3.8v0l-0.2-0.2l-0.2-0.2l-0.2-0.2l-0.2-0.2l-0.2-0.2l-0.2-0.2l-0.2-0.2l-0.2-0.1l-0.2-0.1l-0.2-0.1l-0.2-0.1
		l-0.2-0.1l-0.2-0.1l-0.2-0.1l-0.2-0.1l-0.2-0.1l-0.2-0.1l-0.2-0.1l-0.3-0.1l-0.2-0.1l-0.3-0.1l-0.3-0.1l-0.3-0.1l-0.3-0.1l-0.3-0.1
		l-0.3,0l-0.3-0.1l-0.3,0l-0.3,0h-0.3l-0.3,0h-0.3V443h0.5l0.5,0h0.4l0.5,0.1l0.4,0l0.5,0.1l0.4,0.1l0.4,0.1l0.4,0.1l0.4,0.1
		l0.4,0.1l0.4,0.1l0.4,0.1l0.4,0.1l0.4,0.1l0.4,0.2l0.4,0.2l0.4,0.2l0.4,0.2l0.3,0.2l0.4,0.2l0.3,0.2l0.4,0.2l0.3,0.3l0.3,0.3
		l0.3,0.3l0.3,0.3l0.3,0.3l0.3,0.3l0.3,0.3l0.3,0.3L381.3,448.4L381.3,448.4z M381.3,448.4c1,1.3,0.9,3.1-0.4,4.1
		c-1.3,1-3.1,0.9-4.2-0.4L381.3,448.4z M385.2,459.2h-5.9l0,0v-0.3v-0.3v-0.3l0-0.3l0-0.3l0-0.2l0-0.3l0-0.2l-0.1-0.3l0-0.2
		l-0.1-0.2l-0.1-0.2l-0.1-0.2l-0.1-0.2l-0.1-0.2l-0.1-0.2l-0.1-0.2l-0.1-0.2l-0.1-0.2l-0.1-0.2l-0.1-0.2l-0.1-0.2l-0.1-0.2l-0.1-0.2
		l-0.1-0.2l-0.1-0.2l-0.1-0.2l-0.1-0.2l-0.1-0.2l-0.1-0.2l-0.1-0.2l-0.2-0.2l4.5-3.8l0.3,0.3l0.2,0.3l0.2,0.3l0.2,0.3l0.2,0.3
		l0.2,0.3l0.2,0.3l0.2,0.3l0.2,0.3l0.2,0.3l0.2,0.3l0.1,0.3l0.1,0.3l0.1,0.3l0.1,0.3l0.1,0.3l0.1,0.3l0.1,0.4l0.1,0.3l0.1,0.3
		l0.1,0.4l0.1,0.3l0.1,0.4l0.1,0.4l0.1,0.4l0.1,0.4l0,0.4l0,0.4l0,0.4l0,0.4v0.4V459.2L385.2,459.2z M379.3,475.6v-16.4h5.9v16.4
		l-2.9,2.9L379.3,475.6z M385.2,475.6c0,1.6-1.3,2.9-2.9,2.9c-1.6,0-2.9-1.3-2.9-2.9H385.2z M373,472.6h9.2v5.9H373l-2.9-2.9
		L373,472.6z M373,478.5c-1.6,0-2.9-1.3-2.9-2.9s1.3-2.9,2.9-2.9V478.5z M395.2,463.2v-16.7h5.9v16.7l0,0H395.2z M401.5,464
		l-3.9,4.4l0,0l-0.1-0.1l-0.1-0.1l-0.1-0.1l-0.1-0.1l-0.1-0.1l-0.1-0.1l-0.1-0.1l-0.1-0.1l-0.1-0.2l-0.1-0.1l-0.1-0.1l-0.1-0.2
		l-0.1-0.2l-0.1-0.1l-0.1-0.2l-0.1-0.2l-0.1-0.2l-0.1-0.2l-0.1-0.2l-0.1-0.2l-0.1-0.2l0-0.2l-0.1-0.2l0-0.2l0-0.2l0-0.2l0-0.2l0-0.2
		v-0.2l0-0.2v-0.2v-0.2h5.9v0.1v0v0.1v0v0.1l0,0v0v0v0v0l0,0v0l0,0v0l0,0v0l0,0l0,0v0l0,0l0,0v0h0v0l0,0v0h0l0,0L401.5,464
		L401.5,464L401.5,464L401.5,464L401.5,464z M402.5,464.5v5.9l0,0h-0.2h-0.2l-0.2,0h-0.2l-0.2,0l-0.2,0l-0.2,0l-0.2,0l-0.2,0l-0.2,0
		l-0.2-0.1l-0.2,0l-0.2-0.1l-0.2-0.1l-0.1-0.1l-0.2-0.1l-0.1-0.1l-0.2-0.1l-0.2-0.1l-0.1-0.1l-0.1-0.1l-0.1-0.1l-0.2-0.1l-0.1-0.1
		l-0.1-0.1l-0.1-0.1l-0.1-0.1l-0.1-0.1l-0.1-0.1l-0.1-0.1l-0.1-0.1l-0.1-0.1l3.9-4.4l0.1,0l0,0l0.1,0l0,0l0,0l0.1,0l0,0l0,0l0,0h0
		l0,0h0l0,0h0l0,0h0l0,0h0.1l0,0l0,0h0h0h0l0,0h0h0h0.1h0h0H402.5L402.5,464.5L402.5,464.5L402.5,464.5z M403.6,464.1l4.1,4.3l0,0
		l-0.1,0.1l-0.1,0.1l-0.1,0.1l-0.1,0.1l-0.1,0.1l-0.1,0.1l-0.1,0.1l-0.2,0.1l-0.1,0.1l-0.1,0.1l-0.2,0.1l-0.1,0.1l-0.2,0.1l-0.1,0.1
		l-0.2,0.1l-0.2,0.1l-0.2,0.1l-0.2,0.1l-0.2,0.1l-0.2,0.1l-0.2,0l-0.2,0.1l-0.2,0l-0.2,0l-0.2,0l-0.2,0l-0.2,0l-0.2,0H403l-0.2,0
		h-0.2h-0.2v-5.9h0.1h0h0.1h0h0.1h0h0l0,0h0.1h0h0l0,0h0h0l0,0h0h0l0,0h0l0,0h0l0,0l0,0h0l0,0l0,0h0l0.1,0L403.6,464.1L403.6,464.1
		L403.6,464.1L403.6,464.1L403.6,464.1z M404,463.2h5.9l0,0v0.2v0.2l0,0.2v0.2l0,0.2l0,0.2l0,0.2l0,0.2l0,0.2l-0.1,0.2l-0.1,0.2
		l0,0.2l-0.1,0.2l-0.1,0.2l-0.1,0.2l-0.1,0.2l-0.1,0.2l-0.1,0.1l-0.1,0.2l-0.1,0.2l-0.1,0.1l-0.1,0.2l-0.1,0.1l-0.1,0.1l-0.1,0.1
		l-0.1,0.1l-0.1,0.1l-0.1,0.1l-0.1,0.1l-0.1,0.1l-0.1,0.1l-0.1,0.1l-4.1-4.3l0,0l0.1-0.1v0l0,0h0l0,0l0,0v0l0,0v0l0,0v0h0v0l0,0l0,0
		v0l0,0v0v0l0,0l0,0v0v0v0v0v0l0,0v-0.1V463.2L404,463.2L404,463.2L404,463.2z M403.6,462.3l3.9-4.5l0,0l0.1,0.1l0.1,0.1l0.1,0.1
		l0.1,0.1l0.1,0.1l0.1,0.1l0.1,0.1l0.1,0.1l0.1,0.2l0.1,0.1l0.1,0.2l0.1,0.1l0.1,0.2l0.1,0.2l0.1,0.2l0.1,0.2l0.1,0.2l0.1,0.2
		l0.1,0.2l0.1,0.2l0.1,0.2l0.1,0.2l0,0.2l0.1,0.2l0,0.2l0,0.2l0,0.2l0,0.2v0.2l0,0.2v0.2v0.2H404v-0.1v-0.1v0V463l0,0v-0.1v0v0l0,0
		v-0.1v0l0,0l0,0v0v0l0,0v0l0,0l0,0v0h0v0v0h0l0,0v0l0,0L403.6,462.3L403.6,462.3L403.6,462.3L403.6,462.3L403.6,462.3L403.6,462.3z
		 M402.5,461.8v-5.9l0,0h0.2h0.2h0.2l0.2,0h0.2l0.2,0l0.2,0l0.2,0l0.1,0l0.2,0.1l0.2,0l0.2,0.1l0.2,0.1l0.1,0l0.2,0.1l0.1,0.1
		l0.2,0.1l0.1,0.1l0.2,0.1l0.1,0.1l0.2,0.1l0.1,0.1l0.1,0.1l0.1,0.1l0.1,0.1l0.1,0.1l0.1,0.1l0.1,0.1l0.1,0.1l0.1,0.1l0.1,0.1
		l0.1,0.1l-3.9,4.5l-0.1,0l0-0.1l-0.1,0l-0.1,0l0,0l0,0l-0.1,0l0,0l0,0l-0.1,0h0l0,0h0l0,0H403l0,0h0l0,0h0h0l0,0h0h0h0h0l0,0h0h0
		H402.5L402.5,461.8L402.5,461.8L402.5,461.8L402.5,461.8z M402,461.9l-2.3-5.4l0,0l0.1,0l0.1,0l0.1-0.1l0.1,0l0.1,0l0.1,0l0.1,0
		l0.1,0l0.1,0h0.1l0.1,0l0.1,0l0.1,0h0.1l0.1,0l0.1,0h0.1l0.1,0h0.1l0.1,0h0.1l0.1,0h0.1h0.1l0.1,0h0.1h0.1h0.1h0.1h0.1h0.1h0.1v5.9
		h0h0h0l0,0h0h0h0l0,0h0h0l0,0l0,0h0l0,0h0l0,0h0l0,0h0l0,0L402,461.9L402,461.9L402,461.9L402,461.9L402,461.9L402,461.9L402,461.9
		L402,461.9L402,461.9L402,461.9L402,461.9L402,461.9L402,461.9z M396.8,459.6l5.8,0.7l-5-2.4l0.1-0.1l0.1-0.1l0.1-0.1l0.1-0.1
		l0.1-0.1l0.1-0.1l0.1,0l0.1-0.1l0.1-0.1l0.1-0.1l0.1,0l0.1-0.1l0.1-0.1l0.1,0l0.1-0.1l0.1,0l0.1-0.1l0.1,0l0.1-0.1l0.1,0l0.1,0
		l0.1-0.1l0.1,0l0.1,0l0.1-0.1l0.1,0l0.1,0l0.1,0l0.1-0.1l0.1,0l0.1,0l0.1,0l2.3,5.4h0h0l0,0l0,0l0,0h0v0h0l0,0h0l0,0v0h0l0,0l0,0
		l0,0l0,0l0,0l0,0l0,0h0l0,0l0,0l0,0v0l0,0l0,0h0l0,0l0,0l0,0l0,0L396.8,459.6z M401.8,462c-1.2,1.1-3,1.1-4.2,0
		c-1.1-1.1-1.1-3,0-4.1L401.8,462z M403.7,450.6l-1.1,9.6l-5.8-0.7l1.1-9.6l2.9-2.6L403.7,450.6z M397.8,450
		c0.2-1.6,1.6-2.8,3.3-2.6c1.6,0.2,2.8,1.6,2.6,3.3L397.8,450z M402.5,453.2h-1.7v-5.9h1.7l0,0V453.2z M413.7,451.6l-4,4.3l0,0
		l-0.2-0.2l-0.2-0.2l-0.2-0.1l-0.2-0.1l-0.2-0.1l-0.2-0.1l-0.2-0.1l-0.2-0.1l-0.2-0.1l-0.2-0.1l-0.2-0.1l-0.2-0.1l-0.2-0.1l-0.2-0.1
		l-0.2-0.1l-0.2-0.1l-0.2-0.1l-0.2-0.1l-0.3-0.1l-0.2-0.1l-0.2-0.1l-0.2,0l-0.3-0.1l-0.3-0.1l-0.2,0l-0.3,0l-0.3,0l-0.3,0l-0.3,0
		h-0.3l-0.3,0h-0.3v-5.9h0.4h0.4l0.4,0l0.4,0l0.4,0l0.4,0.1l0.4,0.1l0.4,0.1l0.4,0.1l0.4,0.1l0.4,0.1l0.4,0.1l0.4,0.1l0.4,0.1
		l0.4,0.1l0.3,0.1l0.3,0.1l0.4,0.1l0.3,0.2l0.3,0.1l0.3,0.2l0.3,0.2l0.3,0.2l0.3,0.2l0.3,0.2l0.3,0.2l0.3,0.2l0.3,0.2l0.3,0.2
		l0.3,0.3l0.3,0.3L413.7,451.6L413.7,451.6z M413.7,451.6c1.2,1.1,1.3,2.9,0.2,4.1c-1.1,1.2-3,1.3-4.2,0.2L413.7,451.6z
		 M418.6,463.2h-5.9l0,0v-0.3l0-0.3v-0.3l0-0.3l0-0.3l0-0.3l-0.1-0.3l0-0.3l-0.1-0.3l-0.1-0.3l-0.1-0.3l-0.1-0.2l-0.1-0.3l-0.1-0.2
		l-0.1-0.2L412,459l-0.1-0.2l-0.1-0.2l-0.1-0.2l-0.1-0.2l-0.1-0.2l-0.1-0.2l-0.1-0.2l-0.1-0.2l-0.1-0.2l-0.2-0.2l-0.1-0.2l-0.2-0.2
		l-0.2-0.2l-0.2-0.2l-0.2-0.2l-0.2-0.2l4-4.3l0.3,0.3l0.3,0.3l0.3,0.3l0.3,0.3l0.3,0.3l0.3,0.3l0.3,0.3l0.2,0.3l0.2,0.3l0.2,0.3
		l0.2,0.3l0.2,0.3l0.2,0.3l0.2,0.4l0.2,0.4l0.1,0.4l0.2,0.4l0.1,0.4l0.1,0.4l0.1,0.4l0.1,0.4l0.1,0.4l0.1,0.4l0.1,0.4l0.1,0.4
		l0.1,0.4l0.1,0.4l0,0.4l0,0.4l0,0.4l0,0.4V463.2L418.6,463.2z M414.3,474.1l-4.3-4.1l0,0l0.2-0.2l0.2-0.2l0.2-0.2l0.1-0.2l0.2-0.2
		l0.1-0.2l0.1-0.2l0.1-0.2l0.1-0.2l0.1-0.2l0.1-0.2l0.1-0.2l0.1-0.2l0.1-0.2l0.1-0.2l0.1-0.2l0.1-0.2l0.1-0.2l0.1-0.2l0.1-0.2
		l0.1-0.2l0.1-0.2l0.1-0.2l0.1-0.2l0-0.2l0-0.3l0-0.2l0-0.3l0-0.2v-0.3l0-0.3v-0.3h5.9v0.4l0,0.4l0,0.4l0,0.4l0,0.4l-0.1,0.4
		l-0.1,0.4l-0.1,0.4l-0.1,0.4l-0.1,0.4l-0.1,0.3l-0.1,0.4l-0.1,0.4l-0.1,0.3l-0.1,0.4l-0.1,0.3l-0.1,0.3l-0.2,0.3l-0.1,0.3l-0.2,0.3
		l-0.2,0.3l-0.2,0.3l-0.2,0.3l-0.2,0.3l-0.2,0.3l-0.2,0.3l-0.2,0.3l-0.3,0.3l-0.2,0.3l-0.3,0.3l-0.3,0.3L414.3,474.1L414.3,474.1z
		 M414.3,474.1c-1.1,1.2-3,1.2-4.2,0.1c-1.2-1.1-1.2-3-0.1-4.1L414.3,474.1z M402.5,479v-5.9l0,0h0.3h0.3l0.3,0l0.3,0h0.3l0.3-0.1
		l0.3,0l0.3-0.1l0.3-0.1l0.3-0.1l0.3-0.1l0.2-0.1l0.3-0.1l0.2-0.1l0.2-0.1l0.2-0.1l0.2-0.1l0.2-0.1l0.2-0.1l0.2-0.1l0.2-0.1l0.2-0.1
		l0.2-0.1l0.2-0.1l0.2-0.2l0.2-0.1l0.2-0.2l0.2-0.1l0.2-0.2l0.2-0.2l0.2-0.2l0.2-0.2l4.3,4.1l-0.3,0.3l-0.3,0.3l-0.3,0.3l-0.3,0.3
		l-0.3,0.3l-0.3,0.3l-0.3,0.2l-0.3,0.3l-0.3,0.2l-0.3,0.2l-0.3,0.2l-0.3,0.2l-0.4,0.2l-0.4,0.2l-0.3,0.2l-0.4,0.1l-0.4,0.2l-0.4,0.1
		l-0.4,0.1l-0.4,0.1l-0.4,0.1l-0.4,0.1l-0.4,0.1l-0.4,0.1l-0.4,0.1l-0.4,0.1l-0.4,0.1l-0.4,0l-0.4,0l-0.4,0h-0.4L402.5,479
		L402.5,479z M391.7,474.9l3.9-4.4h0l0.2,0.2l0.2,0.2l0.2,0.2l0.2,0.1l0.2,0.1l0.2,0.1l0.2,0.1l0.2,0.1l0.2,0.1l0.2,0.1l0.2,0.1
		l0.2,0.1l0.2,0.1l0.2,0.1l0.2,0.1l0.2,0.1l0.2,0.1l0.2,0.1l0.2,0.1l0.2,0.1l0.2,0.1l0.2,0.1l0.2,0.1l0.2,0l0.3,0.1l0.2,0l0.2,0
		l0.2,0h0.3l0.2,0h0.3h0.3v5.9h-0.4l-0.4,0l-0.4,0l-0.4,0l-0.4,0l-0.4-0.1l-0.4,0l-0.4-0.1l-0.4-0.1l-0.3-0.1l-0.4-0.1l-0.3-0.1
		l-0.4-0.1l-0.3-0.1l-0.3-0.1l-0.3-0.1l-0.3-0.1l-0.3-0.1l-0.3-0.2l-0.3-0.2l-0.3-0.1l-0.3-0.2l-0.3-0.2l-0.3-0.2l-0.3-0.2l-0.3-0.2
		l-0.3-0.2l-0.3-0.2l-0.3-0.2l-0.3-0.2l-0.3-0.3L391.7,474.9L391.7,474.9z M391.7,474.8c-1.2-1.1-1.3-2.9-0.2-4.1
		c1.1-1.2,2.9-1.3,4.2-0.2L391.7,474.8z M386.6,463.2h5.9l0,0v0.3l0,0.3v0.3l0,0.3l0,0.3l0,0.3l0.1,0.3l0,0.3l0.1,0.3l0.1,0.3
		l0.1,0.2l0.1,0.3l0.1,0.2l0.1,0.2l0.1,0.2l0.1,0.2l0.1,0.2l0.1,0.2l0.1,0.2l0.1,0.2l0.1,0.2l0.1,0.2l0.1,0.2l0.1,0.2l0.2,0.2
		l0.1,0.2l0.2,0.2l0.2,0.2l0.2,0.2l0.2,0.2l0.2,0.2l0.2,0.2l-3.9,4.4l-0.3-0.3l-0.3-0.3l-0.3-0.3l-0.3-0.3l-0.3-0.3l-0.3-0.3
		l-0.3-0.3l-0.3-0.3l-0.2-0.3l-0.2-0.3l-0.2-0.3l-0.2-0.3l-0.2-0.4l-0.2-0.3L388,470l-0.2-0.4l-0.2-0.4l-0.1-0.4l-0.1-0.4l-0.1-0.4
		l-0.1-0.4l-0.1-0.4l-0.1-0.4l-0.1-0.4l-0.1-0.4l-0.1-0.4l-0.1-0.4l0-0.4l0-0.4l0-0.4l0-0.4V463.2L386.6,463.2z M392.5,446.5v16.7
		h-5.9v-16.7l2.9-2.9L392.5,446.5z M386.6,446.5c0-1.6,1.3-2.9,2.9-2.9c1.6,0,2.9,1.3,2.9,2.9H386.6z M398.2,449.4h-8.7v-5.9h8.7
		l2.9,2.9L398.2,449.4z M398.2,443.5c1.6,0,2.9,1.3,2.9,2.9c0,1.6-1.3,2.9-2.9,2.9V443.5z"/>
	<path id="_x31_" class="st49" d="M192.1,488.1v-25.5c0-1.8,0.1-3.4,0.2-4.6c0.1-1.2,0.5-2.5,1-3.7c1.2-2.6,3-4.6,5.4-6.2
		c2.4-1.5,5.1-2.3,8.1-2.3c4.3,0,7.8,1.4,10.6,4.2c2.8,2.8,4.2,6.5,4.2,10.8c0,4.3-1.4,7.9-4.2,10.8c-2.8,2.9-6.3,4.3-10.6,4.3
		l-1.9-0.2l-2.2-9.9c0.9,0.3,1.6,0.5,2.2,0.7c0.5,0.1,1,0.2,1.5,0.2c1.8,0,3.2-0.5,4.2-1.6c1-1.1,1.5-2.5,1.5-4.3
		c0-1.8-0.5-3.2-1.4-4.2c-1-1-2.3-1.5-4-1.5c-3.7,0-5.5,2.1-5.5,6.4v26.5H192.1z M227.5,461c0-4,1.4-7.6,4.4-10.6
		c2.9-3,6.4-4.5,10.4-4.5c4.1,0,7.7,1.5,10.6,4.4c2.9,2.9,4.3,6.5,4.3,10.7c0,4.1-1.4,7.7-4.3,10.6c-2.9,3-6.4,4.5-10.6,4.5
		c-4,0-7.5-1.5-10.4-4.5C229,468.7,227.5,465.1,227.5,461z M247.7,461c0-1.7-0.5-3.1-1.6-4.2c-1.1-1.1-2.4-1.7-3.8-1.7
		c-1.4,0-2.7,0.6-3.7,1.7c-1,1.1-1.5,2.5-1.5,4.3c0,1.7,0.5,3.1,1.5,4.2c1,1.1,2.3,1.7,3.7,1.7c1.5,0,2.8-0.6,3.9-1.7
		C247.2,464,247.7,462.6,247.7,461z M283.5,488.1v-26.5c0-4.3-1.8-6.4-5.5-6.4c-1.6,0-2.9,0.5-3.9,1.5c-1,1-1.5,2.4-1.5,4.2
		c0,1.8,0.5,3.2,1.5,4.3c1,1,2.4,1.6,4.2,1.6c0.5,0,1.2-0.1,1.9-0.3c0.7-0.2,1.3-0.4,1.8-0.6l-2.2,9.9l-1.9,0.2
		c-4.3,0-7.9-1.4-10.6-4.3c-2.8-2.9-4.2-6.5-4.2-10.8c0-4.4,1.4-8,4.2-10.8c2.8-2.8,6.3-4.2,10.6-4.2c4,0,7.3,1.3,10.1,3.8
		c2.8-2.5,6.2-3.8,10.1-3.8c4.3,0,7.8,1.4,10.6,4.2c2.8,2.8,4.2,6.5,4.2,10.8c0,4.3-1.4,7.9-4.2,10.8c-2.8,2.9-6.3,4.3-10.6,4.3
		l-1.9-0.2l-2.1-9.9c0.9,0.3,1.6,0.5,2.2,0.7c0.6,0.1,1.1,0.2,1.5,0.2c1.8,0,3.2-0.5,4.2-1.6c1-1.1,1.5-2.5,1.5-4.3
		c0-1.8-0.5-3.2-1.4-4.2c-1-1-2.3-1.5-4-1.5c-3.7,0-5.5,2.1-5.5,6.4v26.5H283.5z M346.9,475.6h-9.2v-1.7c-1.2,0.8-2.2,1.4-3.1,1.7
		c-0.9,0.3-2.1,0.5-3.6,0.5c-3.1,0-5.6-0.9-7.5-2.6c-2.4-2.2-3.6-5.8-3.6-10.5v-16.4h9.2V462c0,1.9,0.4,3.3,1.1,4.1
		c0.7,0.8,1.8,1.2,3.2,1.2c1.3,0,2.3-0.4,3.1-1.3s1.2-2,1.2-3.3v-16.2h9.2V475.6z M373,475.6V459c0-1.3-0.3-2.3-0.9-3
		c-0.7-0.7-1.5-1.1-2.6-1.1c-1,0-1.8,0.4-2.5,1.2c-0.7,0.8-1,1.8-1,3v7.8c0,2.9-1,5.2-3.1,6.7c-2.1,1.6-5.2,2.4-9.5,2.4V469
		c1.1,0,1.9-0.3,2.5-1c0.6-0.7,0.9-1.9,0.9-3.6v-5.2c0-3.8,1.2-7,3.5-9.5c2.4-2.5,5.4-3.7,9-3.7c4.2,0,7.4,1.4,9.8,4.3
		c2.1,2.6,3.2,5.6,3.2,9v16.4H373z M398.2,446.5v16.7c0,1.2,0.5,2.2,1.3,3c0.9,0.8,1.9,1.2,3,1.2c1.2,0,2.2-0.4,3.1-1.2
		c0.9-0.8,1.3-1.8,1.3-3c0-1.3-0.5-2.3-1.4-3.1c-0.9-0.8-1.9-1.2-3-1.2c-0.6,0-1.2,0.1-1.6,0.3c-0.5,0.2-0.9,0.5-1.2,0.8l1.1-9.7
		h1.7c3.6,0,6.7,1.2,9.2,3.4c2.7,2.4,4,5.6,4,9.5c0,3.4-1.2,6.4-3.6,8.9c-2.5,2.7-5.7,4-9.6,4c-3.3,0-6.3-1.1-8.8-3.4
		c-2.8-2.5-4.2-5.6-4.2-9.5v-16.7H398.2z"/>
</g>
<path class="st49" d="M120.2,474h-15.5v-72.1c0-13.8,3.7-24.7,11.1-32.7c7.4-8,17.1-12,29.2-12c12,0,21.8,4,29.2,12
	c7.4,8,11.1,18.9,11.1,32.7V474h-15.5v-71.3c0-20.6-8.3-30.9-24.9-30.9c-8,0-14.1,2.6-18.4,7.8s-6.5,12.9-6.5,23.1V474z"/>
<path class="st50" d="M196.5,507.7h6.1v17.3h4.5v-21.5h-15v21.5h4.5V507.7z M210.4,509.4v21.3h4.2v-6.6c0.8,0.8,1.9,1.5,3.6,1.5
	c3.3,0,6-2.5,6-8.4c0-1.4-0.1-8.4-5.9-8.4c-2.5,0-3.5,1.4-3.8,2.4h-0.1v-1.9H210.4z M214.4,517.2c0-4.4,1.6-5.2,2.7-5.2
	c1.1,0,2.7,0.9,2.7,5.2c0,1.5-0.2,5.3-2.7,5.3C214.9,522.5,214.4,519.7,214.4,517.2z M232.6,525.7c4.9,0,7.1-3.5,7.1-8.4
	c0-4.8-2.2-8.4-7.1-8.4c-4.9,0-7,3.5-7,8.4C225.5,522.1,227.7,525.7,232.6,525.7z M232.6,522.5c-1.2,0-2.7-0.7-2.7-5.3
	c0-4.5,1.5-5.2,2.7-5.2c1.3,0,2.7,0.7,2.7,5.2C235.3,521.8,233.8,522.5,232.6,522.5z M245.9,518.8v-9.4h-4.2v15.6h4.4l4.7-9.3v9.3
	h4.2v-15.6h-4.4L245.9,518.8z M256.8,519.8c0.1,5.2,3.9,5.8,6.5,5.8c2.9,0,6.4-0.7,6.4-4.9c0-2.8-1.7-3.6-2.9-3.8v-0.2
	c1.4-0.3,2.7-1.3,2.7-3.3c0-2.2-1.2-4.5-6.1-4.5c-5.2,0-6.3,3-6.2,5.6h3.9c-0.1-2.3,1.5-2.5,2-2.5c0.3,0,2.2-0.1,2.2,1.9
	c0,1.1-0.7,1.6-1.7,1.6h-1.8v2.9h1.6c1.8,0,2,1.1,2,2c0,0.8-0.3,2-2.4,2c-2,0-2.4-1.7-2.4-2.7H256.8z M271.7,509.4v15.6h7
	c4.3,0,5.3-1.7,5.3-4c0-1.2-0.2-3.4-3.2-4.1v-0.1c1.2-0.3,2.7-1.1,2.7-3.6c0-3.6-2.6-3.8-4.9-3.8H271.7z M275.9,512.6h1.8
	c1,0,1.8,0.1,1.8,1.5c0,1.2-0.7,1.5-1.8,1.5h-1.7V512.6z M275.9,518.5h1.8c1.5,0,2.2,0.4,2.2,1.8c0,1.1-0.5,1.6-2.2,1.6h-1.8V518.5z
	 M292.5,525.7c4.8,0,7-3.5,7-8.4c0-4.8-2.2-8.4-7-8.4c-4.9,0-7,3.5-7,8.4C285.4,522.1,287.6,525.7,292.5,525.7z M292.5,522.5
	c-1.3,0-2.7-0.7-2.7-5.3c0-4.5,1.5-5.2,2.7-5.2c1.2,0,2.7,0.7,2.7,5.2C295.2,521.8,293.7,522.5,292.5,522.5z M299.8,521.9l0.2,7.2
	h3.7v-4.1h9.2v4.1h3.6l0.2-7.2h-2v-12.5h-11.1v2.9c0,2.5-0.3,6.6-1.9,9.6H299.8z M310.3,512.6v9.4h-4.6c0.6-1.2,1.4-3.5,1.5-7.7
	l0-1.6H310.3z M326.2,519.2c-0.1,1.7-0.6,3.3-2.2,3.3c-2.2,0-2.6-3.1-2.6-5.6c0-4.5,1.6-5,2.7-5c1.1,0,2,0.6,2.2,3h4
	c-0.4-5.6-4-6.2-6-6.2c-2.6,0-7.1,0.8-7.1,8.4c0,8.1,5.3,8.4,6.9,8.4c5.8,0,6.3-5.1,6.4-6.5H326.2z M335.1,512.6v12.5h4.2v-12.5h4.1
	v-3.1h-12.4v3.1H335.1z M344.7,509.4v15.6h7c4.3,0,5.3-1.7,5.3-4c0-1.2-0.2-3.4-3.2-4.1v-0.1c1.2-0.3,2.7-1.1,2.7-3.6
	c0-3.6-2.6-3.8-4.8-3.8H344.7z M348.9,512.6h1.8c1,0,1.8,0.1,1.8,1.5c0,1.2-0.7,1.5-1.8,1.5h-1.7V512.6z M348.9,518.5h1.8
	c1.5,0,2.2,0.4,2.2,1.8c0,1.1-0.5,1.6-2.2,1.6h-1.8V518.5z M367.9,520.6c-0.4,1.8-1.4,2-2.3,2c-1.2,0-2.8-0.4-2.8-4.1h9.6v-0.9
	c0-7.5-3.9-8.7-6.7-8.7c-4.4,0-7.2,3-7.2,8.4c0,7.7,4.4,8.4,6.9,8.4c2.3,0,5.7-0.4,6.7-5.1H367.9z M362.7,515.8
	c0-1.2,0.4-3.8,2.8-3.8c1.4,0,2.4,0.6,2.5,3.8H362.7z M378.7,518.5h4.1v6.6h4.2v-15.6h-4.2v5.9h-4.1v-5.9h-4.2v15.6h4.2V518.5z
	 M394,518.5h4.1v6.6h4.2v-15.6h-4.2v5.9H394v-5.9h-4.2v15.6h4.2V518.5z M409.4,514.5c0-2.3,1.4-2.5,2.1-2.5c1.7,0,1.8,1.4,1.8,2.1
	c0,0.1,0,0.3,0,0.4c0,1.3-0.7,1.4-2.8,1.6c-3,0.4-5.6,1.3-5.6,5c0,2,0.8,4.5,4.6,4.5c1.6,0,3.2-0.7,4.2-2.1h0.1l0.2,1.5h4.2v-0.2
	c-0.5-0.2-0.8-0.7-0.7-3l0.1-7.1c0-1.8-0.1-5.8-6-5.8c-5.1,0-6,3.5-6.1,5.6H409.4z M413.3,518.6c0,3.4-2,3.9-2.5,3.9
	c-0.7,0-1.7-0.2-1.7-1.8c0-1.8,1.1-2,2-2.2c0.6-0.1,1-0.2,1.6-0.4c0.2-0.1,0.3-0.1,0.6-0.2V518.6z M426.8,519.6h0.9v5.4h4.2v-15.6
	h-7.5c-0.9,0-4.8,0-4.8,5.1c0,3.9,2.5,4.7,3.5,4.9l-3.3,5.6h4.6L426.8,519.6z M427.6,512.6v3.9h-1.8c-0.9,0-2.1-0.2-2.1-2
	s1.2-2,2.1-2H427.6z M446.2,515.7h-0.1v-6.3h-4.2v15.6h4.2v-6.8h0.1l3.6,6.8h4.7l-5.4-8.3l5.1-7.3h-4.5L446.2,515.7z M461.5,525.7
	c4.8,0,7-3.5,7-8.4c0-4.8-2.2-8.4-7-8.4c-4.9,0-7.1,3.5-7.1,8.4C454.4,522.1,456.6,525.7,461.5,525.7z M461.5,522.5
	c-1.3,0-2.7-0.7-2.7-5.3c0-4.5,1.5-5.2,2.7-5.2c1.2,0,2.7,0.7,2.7,5.2C464.2,521.8,462.7,522.5,461.5,522.5z M477.8,525.1h2.9
	l2.9-9.5h0.1l-0.1,0.8v8.7h4.2v-15.6h-5.4l-3.1,10.7h-0.1l-3.1-10.7h-5.4v15.6h4.2v-8.7l-0.1-0.8h0.1L477.8,525.1z M495,512.6h4.4
	v12.5h4.2v-15.6h-12.7v15.6h4.2V512.6z M510.7,514.5c0-2.3,1.4-2.5,2.1-2.5c1.7,0,1.8,1.4,1.8,2.1c0,0.1,0,0.3,0,0.4
	c0,1.3-0.7,1.4-2.8,1.6c-3,0.4-5.7,1.3-5.7,5c0,2,0.8,4.5,4.6,4.5c1.6,0,3.2-0.7,4.2-2.1h0.1l0.1,1.5h4.2v-0.2
	c-0.5-0.2-0.8-0.7-0.7-3l0.1-7.1c0-1.8-0.1-5.8-6-5.8c-5.1,0-6.1,3.5-6.1,5.6H510.7z M514.6,518.6c0,3.4-2,3.9-2.5,3.9
	c-0.7,0-1.7-0.2-1.7-1.8c0-1.8,1.1-2,2-2.2c0.6-0.1,1-0.2,1.6-0.4c0.2-0.1,0.3-0.1,0.6-0.2V518.6z M525.6,518.5h4.1v6.6h4.2v-15.6
	h-4.2v5.9h-4.1v-5.9h-4.2v15.6h4.2V518.5z M541,518.8v-9.4h-4.2v15.6h4.4l4.7-9.3v9.3h4.2v-15.6h-4.4L541,518.8z M559.6,519.6h0.9
	v5.4h4.2v-15.6h-7.5c-0.9,0-4.8,0-4.8,5.1c0,3.9,2.5,4.7,3.5,4.9l-3.3,5.6h4.6L559.6,519.6z M560.5,512.6v3.9h-1.8
	c-0.9,0-2.1-0.2-2.1-2s1.3-2,2.1-2H560.5z"/>
</svg>
